<svg id="fakeSVG" viewbox="0,0,1000,1000" preserveAspectRatio="xMidYMid slice" xmlns="http://www.w3.org/2000/svg" version="1.1" width="1000" height="1000">
		<g id="basicPattern"><path d="M 0,200 L 0,400 L 50,300 L 0,200 " stroke="#000000" stroke-width="5" fill="#ffffff" id="obs1" onclick="selectCube(this.id)"></path><path d="M 0,200 L 153,300 L 50,300 L 0,200 " stroke="#000000" stroke-width="5" fill="#ffffff" id="obs2" onclick="selectCube(this.id)"></path><path d="M 0,400 L 153,300 L 50,300 L 0,400 " stroke="#000000" stroke-width="5" fill="#FFFFFF" id="obs3" onclick="selectCube(this.id)"></path><path d="M 0,400 L 153,300 L 103,400 L 0,400 " stroke="#000000" stroke-width="5" fill="#FFFFFF" id="obs4" onclick="selectCube(this.id)"></path><path d="M 0,200 L 153,300 L 103,200 L 0,200 " stroke="#000000" stroke-width="5" fill="#FFFFFF" id="obs5" onclick="selectCube(this.id)"></path><path d="M 153,100 L 153,300 L 103,200 L 153,100 " stroke="#000000" stroke-width="5" fill="#FFFFFF" id="obs7" onclick="selectCube(this.id)"></path><path d="M 153,100 L 153,300 L 203,200 L 153,100 " stroke="#000000" stroke-width="5" fill="#FFFFFF" id="obs6" onclick="selectCube(this.id)"></path><path d="M 306,200 L 153,300 L 203,200 L 306,200 " stroke="#000000" stroke-width="5" fill="#FFFFFF" id="obs9" onclick="selectCube(this.id)"></path><path d="M 306,200 L 153,300 L 256,300 L 306,200 " stroke="#000000" stroke-width="5" fill="#FFFFFF" id="obs8" onclick="selectCube(this.id)"></path><path d="M 306,400 L 153,300 L 256,300 L 306,400 " stroke="#000000" stroke-width="5" fill="#FFFFFF" id="obs10" onclick="selectCube(this.id)"></path><path d="M 306,400 L 153,300 L 203,400 L 306,400 " stroke="#000000" stroke-width="5" fill="#FFFFFF" id="obs11" onclick="selectCube(this.id)"></path><ellipse cx="153" cy="100" ry="15" rx="15" fill="#ffffff" id="obs12" onclick="selectCube(this.id)" stroke-width="5" stroke="#000000" transform="rotate(0,153,100)"></ellipse><ellipse cx="0" cy="200" ry="15" rx="15" fill="#ffffff" id="obs13" onclick="selectCube(this.id)" stroke-width="5" stroke="#000000" transform="rotate(0,0,200)"></ellipse><ellipse cx="0" cy="400" ry="15" rx="15" fill="#ffffff" id="obs14" onclick="selectCube(this.id)" stroke-width="5" stroke="#000000" transform="rotate(0,0,400)"></ellipse></g><g id="copyPatternX00" transform="translate(0,0)"><path d="M 0,200 L 0,400 L 50,300 L 0,200 " stroke="#000000" stroke-width="5" fill="#ffffff" id="obs1" onclick="selectCube(this.id)"></path><path d="M 0,200 L 153,300 L 50,300 L 0,200 " stroke="#000000" stroke-width="5" fill="#ffffff" id="obs2" onclick="selectCube(this.id)"></path><path d="M 0,400 L 153,300 L 50,300 L 0,400 " stroke="#000000" stroke-width="5" fill="#FFFFFF" id="obs3" onclick="selectCube(this.id)"></path><path d="M 0,400 L 153,300 L 103,400 L 0,400 " stroke="#000000" stroke-width="5" fill="#FFFFFF" id="obs4" onclick="selectCube(this.id)"></path><path d="M 0,200 L 153,300 L 103,200 L 0,200 " stroke="#000000" stroke-width="5" fill="#FFFFFF" id="obs5" onclick="selectCube(this.id)"></path><path d="M 153,100 L 153,300 L 103,200 L 153,100 " stroke="#000000" stroke-width="5" fill="#FFFFFF" id="obs7" onclick="selectCube(this.id)"></path><path d="M 153,100 L 153,300 L 203,200 L 153,100 " stroke="#000000" stroke-width="5" fill="#FFFFFF" id="obs6" onclick="selectCube(this.id)"></path><path d="M 306,200 L 153,300 L 203,200 L 306,200 " stroke="#000000" stroke-width="5" fill="#FFFFFF" id="obs9" onclick="selectCube(this.id)"></path><path d="M 306,200 L 153,300 L 256,300 L 306,200 " stroke="#000000" stroke-width="5" fill="#FFFFFF" id="obs8" onclick="selectCube(this.id)"></path><path d="M 306,400 L 153,300 L 256,300 L 306,400 " stroke="#000000" stroke-width="5" fill="#FFFFFF" id="obs10" onclick="selectCube(this.id)"></path><path d="M 306,400 L 153,300 L 203,400 L 306,400 " stroke="#000000" stroke-width="5" fill="#FFFFFF" id="obs11" onclick="selectCube(this.id)"></path><ellipse cx="153" cy="100" ry="15" rx="15" fill="#ffffff" id="obs12" onclick="selectCube(this.id)" stroke-width="5" stroke="#000000" transform="rotate(0,153,100)"></ellipse><ellipse cx="0" cy="200" ry="15" rx="15" fill="#ffffff" id="obs13" onclick="selectCube(this.id)" stroke-width="5" stroke="#000000" transform="rotate(0,0,200)"></ellipse><ellipse cx="0" cy="400" ry="15" rx="15" fill="#ffffff" id="obs14" onclick="selectCube(this.id)" stroke-width="5" stroke="#000000" transform="rotate(0,0,400)"></ellipse></g><g id="copyPatternX10" transform="translate(306,0)"><path d="M 0,200 L 0,400 L 50,300 L 0,200 " stroke="#000000" stroke-width="5" fill="#ffffff" id="obs1" onclick="selectCube(this.id)"></path><path d="M 0,200 L 153,300 L 50,300 L 0,200 " stroke="#000000" stroke-width="5" fill="#ffffff" id="obs2" onclick="selectCube(this.id)"></path><path d="M 0,400 L 153,300 L 50,300 L 0,400 " stroke="#000000" stroke-width="5" fill="#FFFFFF" id="obs3" onclick="selectCube(this.id)"></path><path d="M 0,400 L 153,300 L 103,400 L 0,400 " stroke="#000000" stroke-width="5" fill="#FFFFFF" id="obs4" onclick="selectCube(this.id)"></path><path d="M 0,200 L 153,300 L 103,200 L 0,200 " stroke="#000000" stroke-width="5" fill="#FFFFFF" id="obs5" onclick="selectCube(this.id)"></path><path d="M 153,100 L 153,300 L 103,200 L 153,100 " stroke="#000000" stroke-width="5" fill="#FFFFFF" id="obs7" onclick="selectCube(this.id)"></path><path d="M 153,100 L 153,300 L 203,200 L 153,100 " stroke="#000000" stroke-width="5" fill="#FFFFFF" id="obs6" onclick="selectCube(this.id)"></path><path d="M 306,200 L 153,300 L 203,200 L 306,200 " stroke="#000000" stroke-width="5" fill="#FFFFFF" id="obs9" onclick="selectCube(this.id)"></path><path d="M 306,200 L 153,300 L 256,300 L 306,200 " stroke="#000000" stroke-width="5" fill="#FFFFFF" id="obs8" onclick="selectCube(this.id)"></path><path d="M 306,400 L 153,300 L 256,300 L 306,400 " stroke="#000000" stroke-width="5" fill="#FFFFFF" id="obs10" onclick="selectCube(this.id)"></path><path d="M 306,400 L 153,300 L 203,400 L 306,400 " stroke="#000000" stroke-width="5" fill="#FFFFFF" id="obs11" onclick="selectCube(this.id)"></path><ellipse cx="153" cy="100" ry="15" rx="15" fill="#ffffff" id="obs12" onclick="selectCube(this.id)" stroke-width="5" stroke="#000000" transform="rotate(0,153,100)"></ellipse><ellipse cx="0" cy="200" ry="15" rx="15" fill="#ffffff" id="obs13" onclick="selectCube(this.id)" stroke-width="5" stroke="#000000" transform="rotate(0,0,200)"></ellipse><ellipse cx="0" cy="400" ry="15" rx="15" fill="#ffffff" id="obs14" onclick="selectCube(this.id)" stroke-width="5" stroke="#000000" transform="rotate(0,0,400)"></ellipse></g><g id="copyPatternX20" transform="translate(612,0)"><path d="M 0,200 L 0,400 L 50,300 L 0,200 " stroke="#000000" stroke-width="5" fill="#ffffff" id="obs1" onclick="selectCube(this.id)"></path><path d="M 0,200 L 153,300 L 50,300 L 0,200 " stroke="#000000" stroke-width="5" fill="#ffffff" id="obs2" onclick="selectCube(this.id)"></path><path d="M 0,400 L 153,300 L 50,300 L 0,400 " stroke="#000000" stroke-width="5" fill="#FFFFFF" id="obs3" onclick="selectCube(this.id)"></path><path d="M 0,400 L 153,300 L 103,400 L 0,400 " stroke="#000000" stroke-width="5" fill="#FFFFFF" id="obs4" onclick="selectCube(this.id)"></path><path d="M 0,200 L 153,300 L 103,200 L 0,200 " stroke="#000000" stroke-width="5" fill="#FFFFFF" id="obs5" onclick="selectCube(this.id)"></path><path d="M 153,100 L 153,300 L 103,200 L 153,100 " stroke="#000000" stroke-width="5" fill="#FFFFFF" id="obs7" onclick="selectCube(this.id)"></path><path d="M 153,100 L 153,300 L 203,200 L 153,100 " stroke="#000000" stroke-width="5" fill="#FFFFFF" id="obs6" onclick="selectCube(this.id)"></path><path d="M 306,200 L 153,300 L 203,200 L 306,200 " stroke="#000000" stroke-width="5" fill="#FFFFFF" id="obs9" onclick="selectCube(this.id)"></path><path d="M 306,200 L 153,300 L 256,300 L 306,200 " stroke="#000000" stroke-width="5" fill="#FFFFFF" id="obs8" onclick="selectCube(this.id)"></path><path d="M 306,400 L 153,300 L 256,300 L 306,400 " stroke="#000000" stroke-width="5" fill="#FFFFFF" id="obs10" onclick="selectCube(this.id)"></path><path d="M 306,400 L 153,300 L 203,400 L 306,400 " stroke="#000000" stroke-width="5" fill="#FFFFFF" id="obs11" onclick="selectCube(this.id)"></path><ellipse cx="153" cy="100" ry="15" rx="15" fill="#ffffff" id="obs12" onclick="selectCube(this.id)" stroke-width="5" stroke="#000000" transform="rotate(0,153,100)"></ellipse><ellipse cx="0" cy="200" ry="15" rx="15" fill="#ffffff" id="obs13" onclick="selectCube(this.id)" stroke-width="5" stroke="#000000" transform="rotate(0,0,200)"></ellipse><ellipse cx="0" cy="400" ry="15" rx="15" fill="#ffffff" id="obs14" onclick="selectCube(this.id)" stroke-width="5" stroke="#000000" transform="rotate(0,0,400)"></ellipse></g><g id="copyPatternX30" transform="translate(918,0)"><path d="M 0,200 L 0,400 L 50,300 L 0,200 " stroke="#000000" stroke-width="5" fill="#ffffff" id="obs1" onclick="selectCube(this.id)"></path><path d="M 0,200 L 153,300 L 50,300 L 0,200 " stroke="#000000" stroke-width="5" fill="#ffffff" id="obs2" onclick="selectCube(this.id)"></path><path d="M 0,400 L 153,300 L 50,300 L 0,400 " stroke="#000000" stroke-width="5" fill="#FFFFFF" id="obs3" onclick="selectCube(this.id)"></path><path d="M 0,400 L 153,300 L 103,400 L 0,400 " stroke="#000000" stroke-width="5" fill="#FFFFFF" id="obs4" onclick="selectCube(this.id)"></path><path d="M 0,200 L 153,300 L 103,200 L 0,200 " stroke="#000000" stroke-width="5" fill="#FFFFFF" id="obs5" onclick="selectCube(this.id)"></path><path d="M 153,100 L 153,300 L 103,200 L 153,100 " stroke="#000000" stroke-width="5" fill="#FFFFFF" id="obs7" onclick="selectCube(this.id)"></path><path d="M 153,100 L 153,300 L 203,200 L 153,100 " stroke="#000000" stroke-width="5" fill="#FFFFFF" id="obs6" onclick="selectCube(this.id)"></path><path d="M 306,200 L 153,300 L 203,200 L 306,200 " stroke="#000000" stroke-width="5" fill="#FFFFFF" id="obs9" onclick="selectCube(this.id)"></path><path d="M 306,200 L 153,300 L 256,300 L 306,200 " stroke="#000000" stroke-width="5" fill="#FFFFFF" id="obs8" onclick="selectCube(this.id)"></path><path d="M 306,400 L 153,300 L 256,300 L 306,400 " stroke="#000000" stroke-width="5" fill="#FFFFFF" id="obs10" onclick="selectCube(this.id)"></path><path d="M 306,400 L 153,300 L 203,400 L 306,400 " stroke="#000000" stroke-width="5" fill="#FFFFFF" id="obs11" onclick="selectCube(this.id)"></path><ellipse cx="153" cy="100" ry="15" rx="15" fill="#ffffff" id="obs12" onclick="selectCube(this.id)" stroke-width="5" stroke="#000000" transform="rotate(0,153,100)"></ellipse><ellipse cx="0" cy="200" ry="15" rx="15" fill="#ffffff" id="obs13" onclick="selectCube(this.id)" stroke-width="5" stroke="#000000" transform="rotate(0,0,200)"></ellipse><ellipse cx="0" cy="400" ry="15" rx="15" fill="#ffffff" id="obs14" onclick="selectCube(this.id)" stroke-width="5" stroke="#000000" transform="rotate(0,0,400)"></ellipse></g><g id="copyPatternX01" transform="translate(0,200)"><path d="M 0,200 L 0,400 L 50,300 L 0,200 " stroke="#000000" stroke-width="5" fill="#ffffff" id="obs1" onclick="selectCube(this.id)"></path><path d="M 0,200 L 153,300 L 50,300 L 0,200 " stroke="#000000" stroke-width="5" fill="#ffffff" id="obs2" onclick="selectCube(this.id)"></path><path d="M 0,400 L 153,300 L 50,300 L 0,400 " stroke="#000000" stroke-width="5" fill="#FFFFFF" id="obs3" onclick="selectCube(this.id)"></path><path d="M 0,400 L 153,300 L 103,400 L 0,400 " stroke="#000000" stroke-width="5" fill="#FFFFFF" id="obs4" onclick="selectCube(this.id)"></path><path d="M 0,200 L 153,300 L 103,200 L 0,200 " stroke="#000000" stroke-width="5" fill="#FFFFFF" id="obs5" onclick="selectCube(this.id)"></path><path d="M 153,100 L 153,300 L 103,200 L 153,100 " stroke="#000000" stroke-width="5" fill="#FFFFFF" id="obs7" onclick="selectCube(this.id)"></path><path d="M 153,100 L 153,300 L 203,200 L 153,100 " stroke="#000000" stroke-width="5" fill="#FFFFFF" id="obs6" onclick="selectCube(this.id)"></path><path d="M 306,200 L 153,300 L 203,200 L 306,200 " stroke="#000000" stroke-width="5" fill="#FFFFFF" id="obs9" onclick="selectCube(this.id)"></path><path d="M 306,200 L 153,300 L 256,300 L 306,200 " stroke="#000000" stroke-width="5" fill="#FFFFFF" id="obs8" onclick="selectCube(this.id)"></path><path d="M 306,400 L 153,300 L 256,300 L 306,400 " stroke="#000000" stroke-width="5" fill="#FFFFFF" id="obs10" onclick="selectCube(this.id)"></path><path d="M 306,400 L 153,300 L 203,400 L 306,400 " stroke="#000000" stroke-width="5" fill="#FFFFFF" id="obs11" onclick="selectCube(this.id)"></path><ellipse cx="153" cy="100" ry="15" rx="15" fill="#ffffff" id="obs12" onclick="selectCube(this.id)" stroke-width="5" stroke="#000000" transform="rotate(0,153,100)"></ellipse><ellipse cx="0" cy="200" ry="15" rx="15" fill="#ffffff" id="obs13" onclick="selectCube(this.id)" stroke-width="5" stroke="#000000" transform="rotate(0,0,200)"></ellipse><ellipse cx="0" cy="400" ry="15" rx="15" fill="#ffffff" id="obs14" onclick="selectCube(this.id)" stroke-width="5" stroke="#000000" transform="rotate(0,0,400)"></ellipse></g><g id="copyPatternX11" transform="translate(306,200)"><path d="M 0,200 L 0,400 L 50,300 L 0,200 " stroke="#000000" stroke-width="5" fill="#ffffff" id="obs1" onclick="selectCube(this.id)"></path><path d="M 0,200 L 153,300 L 50,300 L 0,200 " stroke="#000000" stroke-width="5" fill="#ffffff" id="obs2" onclick="selectCube(this.id)"></path><path d="M 0,400 L 153,300 L 50,300 L 0,400 " stroke="#000000" stroke-width="5" fill="#FFFFFF" id="obs3" onclick="selectCube(this.id)"></path><path d="M 0,400 L 153,300 L 103,400 L 0,400 " stroke="#000000" stroke-width="5" fill="#FFFFFF" id="obs4" onclick="selectCube(this.id)"></path><path d="M 0,200 L 153,300 L 103,200 L 0,200 " stroke="#000000" stroke-width="5" fill="#FFFFFF" id="obs5" onclick="selectCube(this.id)"></path><path d="M 153,100 L 153,300 L 103,200 L 153,100 " stroke="#000000" stroke-width="5" fill="#FFFFFF" id="obs7" onclick="selectCube(this.id)"></path><path d="M 153,100 L 153,300 L 203,200 L 153,100 " stroke="#000000" stroke-width="5" fill="#FFFFFF" id="obs6" onclick="selectCube(this.id)"></path><path d="M 306,200 L 153,300 L 203,200 L 306,200 " stroke="#000000" stroke-width="5" fill="#FFFFFF" id="obs9" onclick="selectCube(this.id)"></path><path d="M 306,200 L 153,300 L 256,300 L 306,200 " stroke="#000000" stroke-width="5" fill="#FFFFFF" id="obs8" onclick="selectCube(this.id)"></path><path d="M 306,400 L 153,300 L 256,300 L 306,400 " stroke="#000000" stroke-width="5" fill="#FFFFFF" id="obs10" onclick="selectCube(this.id)"></path><path d="M 306,400 L 153,300 L 203,400 L 306,400 " stroke="#000000" stroke-width="5" fill="#FFFFFF" id="obs11" onclick="selectCube(this.id)"></path><ellipse cx="153" cy="100" ry="15" rx="15" fill="#ffffff" id="obs12" onclick="selectCube(this.id)" stroke-width="5" stroke="#000000" transform="rotate(0,153,100)"></ellipse><ellipse cx="0" cy="200" ry="15" rx="15" fill="#ffffff" id="obs13" onclick="selectCube(this.id)" stroke-width="5" stroke="#000000" transform="rotate(0,0,200)"></ellipse><ellipse cx="0" cy="400" ry="15" rx="15" fill="#ffffff" id="obs14" onclick="selectCube(this.id)" stroke-width="5" stroke="#000000" transform="rotate(0,0,400)"></ellipse></g><g id="copyPatternX21" transform="translate(612,200)"><path d="M 0,200 L 0,400 L 50,300 L 0,200 " stroke="#000000" stroke-width="5" fill="#ffffff" id="obs1" onclick="selectCube(this.id)"></path><path d="M 0,200 L 153,300 L 50,300 L 0,200 " stroke="#000000" stroke-width="5" fill="#ffffff" id="obs2" onclick="selectCube(this.id)"></path><path d="M 0,400 L 153,300 L 50,300 L 0,400 " stroke="#000000" stroke-width="5" fill="#FFFFFF" id="obs3" onclick="selectCube(this.id)"></path><path d="M 0,400 L 153,300 L 103,400 L 0,400 " stroke="#000000" stroke-width="5" fill="#FFFFFF" id="obs4" onclick="selectCube(this.id)"></path><path d="M 0,200 L 153,300 L 103,200 L 0,200 " stroke="#000000" stroke-width="5" fill="#FFFFFF" id="obs5" onclick="selectCube(this.id)"></path><path d="M 153,100 L 153,300 L 103,200 L 153,100 " stroke="#000000" stroke-width="5" fill="#FFFFFF" id="obs7" onclick="selectCube(this.id)"></path><path d="M 153,100 L 153,300 L 203,200 L 153,100 " stroke="#000000" stroke-width="5" fill="#FFFFFF" id="obs6" onclick="selectCube(this.id)"></path><path d="M 306,200 L 153,300 L 203,200 L 306,200 " stroke="#000000" stroke-width="5" fill="#FFFFFF" id="obs9" onclick="selectCube(this.id)"></path><path d="M 306,200 L 153,300 L 256,300 L 306,200 " stroke="#000000" stroke-width="5" fill="#FFFFFF" id="obs8" onclick="selectCube(this.id)"></path><path d="M 306,400 L 153,300 L 256,300 L 306,400 " stroke="#000000" stroke-width="5" fill="#FFFFFF" id="obs10" onclick="selectCube(this.id)"></path><path d="M 306,400 L 153,300 L 203,400 L 306,400 " stroke="#000000" stroke-width="5" fill="#FFFFFF" id="obs11" onclick="selectCube(this.id)"></path><ellipse cx="153" cy="100" ry="15" rx="15" fill="#ffffff" id="obs12" onclick="selectCube(this.id)" stroke-width="5" stroke="#000000" transform="rotate(0,153,100)"></ellipse><ellipse cx="0" cy="200" ry="15" rx="15" fill="#ffffff" id="obs13" onclick="selectCube(this.id)" stroke-width="5" stroke="#000000" transform="rotate(0,0,200)"></ellipse><ellipse cx="0" cy="400" ry="15" rx="15" fill="#ffffff" id="obs14" onclick="selectCube(this.id)" stroke-width="5" stroke="#000000" transform="rotate(0,0,400)"></ellipse></g><g id="copyPatternX31" transform="translate(918,200)"><path d="M 0,200 L 0,400 L 50,300 L 0,200 " stroke="#000000" stroke-width="5" fill="#ffffff" id="obs1" onclick="selectCube(this.id)"></path><path d="M 0,200 L 153,300 L 50,300 L 0,200 " stroke="#000000" stroke-width="5" fill="#ffffff" id="obs2" onclick="selectCube(this.id)"></path><path d="M 0,400 L 153,300 L 50,300 L 0,400 " stroke="#000000" stroke-width="5" fill="#FFFFFF" id="obs3" onclick="selectCube(this.id)"></path><path d="M 0,400 L 153,300 L 103,400 L 0,400 " stroke="#000000" stroke-width="5" fill="#FFFFFF" id="obs4" onclick="selectCube(this.id)"></path><path d="M 0,200 L 153,300 L 103,200 L 0,200 " stroke="#000000" stroke-width="5" fill="#FFFFFF" id="obs5" onclick="selectCube(this.id)"></path><path d="M 153,100 L 153,300 L 103,200 L 153,100 " stroke="#000000" stroke-width="5" fill="#FFFFFF" id="obs7" onclick="selectCube(this.id)"></path><path d="M 153,100 L 153,300 L 203,200 L 153,100 " stroke="#000000" stroke-width="5" fill="#FFFFFF" id="obs6" onclick="selectCube(this.id)"></path><path d="M 306,200 L 153,300 L 203,200 L 306,200 " stroke="#000000" stroke-width="5" fill="#FFFFFF" id="obs9" onclick="selectCube(this.id)"></path><path d="M 306,200 L 153,300 L 256,300 L 306,200 " stroke="#000000" stroke-width="5" fill="#FFFFFF" id="obs8" onclick="selectCube(this.id)"></path><path d="M 306,400 L 153,300 L 256,300 L 306,400 " stroke="#000000" stroke-width="5" fill="#FFFFFF" id="obs10" onclick="selectCube(this.id)"></path><path d="M 306,400 L 153,300 L 203,400 L 306,400 " stroke="#000000" stroke-width="5" fill="#FFFFFF" id="obs11" onclick="selectCube(this.id)"></path><ellipse cx="153" cy="100" ry="15" rx="15" fill="#ffffff" id="obs12" onclick="selectCube(this.id)" stroke-width="5" stroke="#000000" transform="rotate(0,153,100)"></ellipse><ellipse cx="0" cy="200" ry="15" rx="15" fill="#ffffff" id="obs13" onclick="selectCube(this.id)" stroke-width="5" stroke="#000000" transform="rotate(0,0,200)"></ellipse><ellipse cx="0" cy="400" ry="15" rx="15" fill="#ffffff" id="obs14" onclick="selectCube(this.id)" stroke-width="5" stroke="#000000" transform="rotate(0,0,400)"></ellipse></g><g id="copyPatternX02" transform="translate(0,400)"><path d="M 0,200 L 0,400 L 50,300 L 0,200 " stroke="#000000" stroke-width="5" fill="#ffffff" id="obs1" onclick="selectCube(this.id)"></path><path d="M 0,200 L 153,300 L 50,300 L 0,200 " stroke="#000000" stroke-width="5" fill="#ffffff" id="obs2" onclick="selectCube(this.id)"></path><path d="M 0,400 L 153,300 L 50,300 L 0,400 " stroke="#000000" stroke-width="5" fill="#FFFFFF" id="obs3" onclick="selectCube(this.id)"></path><path d="M 0,400 L 153,300 L 103,400 L 0,400 " stroke="#000000" stroke-width="5" fill="#FFFFFF" id="obs4" onclick="selectCube(this.id)"></path><path d="M 0,200 L 153,300 L 103,200 L 0,200 " stroke="#000000" stroke-width="5" fill="#FFFFFF" id="obs5" onclick="selectCube(this.id)"></path><path d="M 153,100 L 153,300 L 103,200 L 153,100 " stroke="#000000" stroke-width="5" fill="#FFFFFF" id="obs7" onclick="selectCube(this.id)"></path><path d="M 153,100 L 153,300 L 203,200 L 153,100 " stroke="#000000" stroke-width="5" fill="#FFFFFF" id="obs6" onclick="selectCube(this.id)"></path><path d="M 306,200 L 153,300 L 203,200 L 306,200 " stroke="#000000" stroke-width="5" fill="#FFFFFF" id="obs9" onclick="selectCube(this.id)"></path><path d="M 306,200 L 153,300 L 256,300 L 306,200 " stroke="#000000" stroke-width="5" fill="#FFFFFF" id="obs8" onclick="selectCube(this.id)"></path><path d="M 306,400 L 153,300 L 256,300 L 306,400 " stroke="#000000" stroke-width="5" fill="#FFFFFF" id="obs10" onclick="selectCube(this.id)"></path><path d="M 306,400 L 153,300 L 203,400 L 306,400 " stroke="#000000" stroke-width="5" fill="#FFFFFF" id="obs11" onclick="selectCube(this.id)"></path><ellipse cx="153" cy="100" ry="15" rx="15" fill="#ffffff" id="obs12" onclick="selectCube(this.id)" stroke-width="5" stroke="#000000" transform="rotate(0,153,100)"></ellipse><ellipse cx="0" cy="200" ry="15" rx="15" fill="#ffffff" id="obs13" onclick="selectCube(this.id)" stroke-width="5" stroke="#000000" transform="rotate(0,0,200)"></ellipse><ellipse cx="0" cy="400" ry="15" rx="15" fill="#ffffff" id="obs14" onclick="selectCube(this.id)" stroke-width="5" stroke="#000000" transform="rotate(0,0,400)"></ellipse></g><g id="copyPatternX12" transform="translate(306,400)"><path d="M 0,200 L 0,400 L 50,300 L 0,200 " stroke="#000000" stroke-width="5" fill="#ffffff" id="obs1" onclick="selectCube(this.id)"></path><path d="M 0,200 L 153,300 L 50,300 L 0,200 " stroke="#000000" stroke-width="5" fill="#ffffff" id="obs2" onclick="selectCube(this.id)"></path><path d="M 0,400 L 153,300 L 50,300 L 0,400 " stroke="#000000" stroke-width="5" fill="#FFFFFF" id="obs3" onclick="selectCube(this.id)"></path><path d="M 0,400 L 153,300 L 103,400 L 0,400 " stroke="#000000" stroke-width="5" fill="#FFFFFF" id="obs4" onclick="selectCube(this.id)"></path><path d="M 0,200 L 153,300 L 103,200 L 0,200 " stroke="#000000" stroke-width="5" fill="#FFFFFF" id="obs5" onclick="selectCube(this.id)"></path><path d="M 153,100 L 153,300 L 103,200 L 153,100 " stroke="#000000" stroke-width="5" fill="#FFFFFF" id="obs7" onclick="selectCube(this.id)"></path><path d="M 153,100 L 153,300 L 203,200 L 153,100 " stroke="#000000" stroke-width="5" fill="#FFFFFF" id="obs6" onclick="selectCube(this.id)"></path><path d="M 306,200 L 153,300 L 203,200 L 306,200 " stroke="#000000" stroke-width="5" fill="#FFFFFF" id="obs9" onclick="selectCube(this.id)"></path><path d="M 306,200 L 153,300 L 256,300 L 306,200 " stroke="#000000" stroke-width="5" fill="#FFFFFF" id="obs8" onclick="selectCube(this.id)"></path><path d="M 306,400 L 153,300 L 256,300 L 306,400 " stroke="#000000" stroke-width="5" fill="#FFFFFF" id="obs10" onclick="selectCube(this.id)"></path><path d="M 306,400 L 153,300 L 203,400 L 306,400 " stroke="#000000" stroke-width="5" fill="#FFFFFF" id="obs11" onclick="selectCube(this.id)"></path><ellipse cx="153" cy="100" ry="15" rx="15" fill="#ffffff" id="obs12" onclick="selectCube(this.id)" stroke-width="5" stroke="#000000" transform="rotate(0,153,100)"></ellipse><ellipse cx="0" cy="200" ry="15" rx="15" fill="#ffffff" id="obs13" onclick="selectCube(this.id)" stroke-width="5" stroke="#000000" transform="rotate(0,0,200)"></ellipse><ellipse cx="0" cy="400" ry="15" rx="15" fill="#ffffff" id="obs14" onclick="selectCube(this.id)" stroke-width="5" stroke="#000000" transform="rotate(0,0,400)"></ellipse></g><g id="copyPatternX22" transform="translate(612,400)"><path d="M 0,200 L 0,400 L 50,300 L 0,200 " stroke="#000000" stroke-width="5" fill="#ffffff" id="obs1" onclick="selectCube(this.id)"></path><path d="M 0,200 L 153,300 L 50,300 L 0,200 " stroke="#000000" stroke-width="5" fill="#ffffff" id="obs2" onclick="selectCube(this.id)"></path><path d="M 0,400 L 153,300 L 50,300 L 0,400 " stroke="#000000" stroke-width="5" fill="#FFFFFF" id="obs3" onclick="selectCube(this.id)"></path><path d="M 0,400 L 153,300 L 103,400 L 0,400 " stroke="#000000" stroke-width="5" fill="#FFFFFF" id="obs4" onclick="selectCube(this.id)"></path><path d="M 0,200 L 153,300 L 103,200 L 0,200 " stroke="#000000" stroke-width="5" fill="#FFFFFF" id="obs5" onclick="selectCube(this.id)"></path><path d="M 153,100 L 153,300 L 103,200 L 153,100 " stroke="#000000" stroke-width="5" fill="#FFFFFF" id="obs7" onclick="selectCube(this.id)"></path><path d="M 153,100 L 153,300 L 203,200 L 153,100 " stroke="#000000" stroke-width="5" fill="#FFFFFF" id="obs6" onclick="selectCube(this.id)"></path><path d="M 306,200 L 153,300 L 203,200 L 306,200 " stroke="#000000" stroke-width="5" fill="#FFFFFF" id="obs9" onclick="selectCube(this.id)"></path><path d="M 306,200 L 153,300 L 256,300 L 306,200 " stroke="#000000" stroke-width="5" fill="#FFFFFF" id="obs8" onclick="selectCube(this.id)"></path><path d="M 306,400 L 153,300 L 256,300 L 306,400 " stroke="#000000" stroke-width="5" fill="#FFFFFF" id="obs10" onclick="selectCube(this.id)"></path><path d="M 306,400 L 153,300 L 203,400 L 306,400 " stroke="#000000" stroke-width="5" fill="#FFFFFF" id="obs11" onclick="selectCube(this.id)"></path><ellipse cx="153" cy="100" ry="15" rx="15" fill="#ffffff" id="obs12" onclick="selectCube(this.id)" stroke-width="5" stroke="#000000" transform="rotate(0,153,100)"></ellipse><ellipse cx="0" cy="200" ry="15" rx="15" fill="#ffffff" id="obs13" onclick="selectCube(this.id)" stroke-width="5" stroke="#000000" transform="rotate(0,0,200)"></ellipse><ellipse cx="0" cy="400" ry="15" rx="15" fill="#ffffff" id="obs14" onclick="selectCube(this.id)" stroke-width="5" stroke="#000000" transform="rotate(0,0,400)"></ellipse></g><g id="copyPatternX32" transform="translate(918,400)"><path d="M 0,200 L 0,400 L 50,300 L 0,200 " stroke="#000000" stroke-width="5" fill="#ffffff" id="obs1" onclick="selectCube(this.id)"></path><path d="M 0,200 L 153,300 L 50,300 L 0,200 " stroke="#000000" stroke-width="5" fill="#ffffff" id="obs2" onclick="selectCube(this.id)"></path><path d="M 0,400 L 153,300 L 50,300 L 0,400 " stroke="#000000" stroke-width="5" fill="#FFFFFF" id="obs3" onclick="selectCube(this.id)"></path><path d="M 0,400 L 153,300 L 103,400 L 0,400 " stroke="#000000" stroke-width="5" fill="#FFFFFF" id="obs4" onclick="selectCube(this.id)"></path><path d="M 0,200 L 153,300 L 103,200 L 0,200 " stroke="#000000" stroke-width="5" fill="#FFFFFF" id="obs5" onclick="selectCube(this.id)"></path><path d="M 153,100 L 153,300 L 103,200 L 153,100 " stroke="#000000" stroke-width="5" fill="#FFFFFF" id="obs7" onclick="selectCube(this.id)"></path><path d="M 153,100 L 153,300 L 203,200 L 153,100 " stroke="#000000" stroke-width="5" fill="#FFFFFF" id="obs6" onclick="selectCube(this.id)"></path><path d="M 306,200 L 153,300 L 203,200 L 306,200 " stroke="#000000" stroke-width="5" fill="#FFFFFF" id="obs9" onclick="selectCube(this.id)"></path><path d="M 306,200 L 153,300 L 256,300 L 306,200 " stroke="#000000" stroke-width="5" fill="#FFFFFF" id="obs8" onclick="selectCube(this.id)"></path><path d="M 306,400 L 153,300 L 256,300 L 306,400 " stroke="#000000" stroke-width="5" fill="#FFFFFF" id="obs10" onclick="selectCube(this.id)"></path><path d="M 306,400 L 153,300 L 203,400 L 306,400 " stroke="#000000" stroke-width="5" fill="#FFFFFF" id="obs11" onclick="selectCube(this.id)"></path><ellipse cx="153" cy="100" ry="15" rx="15" fill="#ffffff" id="obs12" onclick="selectCube(this.id)" stroke-width="5" stroke="#000000" transform="rotate(0,153,100)"></ellipse><ellipse cx="0" cy="200" ry="15" rx="15" fill="#ffffff" id="obs13" onclick="selectCube(this.id)" stroke-width="5" stroke="#000000" transform="rotate(0,0,200)"></ellipse><ellipse cx="0" cy="400" ry="15" rx="15" fill="#ffffff" id="obs14" onclick="selectCube(this.id)" stroke-width="5" stroke="#000000" transform="rotate(0,0,400)"></ellipse></g><g id="copyPatternX03" transform="translate(0,600)"><path d="M 0,200 L 0,400 L 50,300 L 0,200 " stroke="#000000" stroke-width="5" fill="#ffffff" id="obs1" onclick="selectCube(this.id)"></path><path d="M 0,200 L 153,300 L 50,300 L 0,200 " stroke="#000000" stroke-width="5" fill="#ffffff" id="obs2" onclick="selectCube(this.id)"></path><path d="M 0,400 L 153,300 L 50,300 L 0,400 " stroke="#000000" stroke-width="5" fill="#FFFFFF" id="obs3" onclick="selectCube(this.id)"></path><path d="M 0,400 L 153,300 L 103,400 L 0,400 " stroke="#000000" stroke-width="5" fill="#FFFFFF" id="obs4" onclick="selectCube(this.id)"></path><path d="M 0,200 L 153,300 L 103,200 L 0,200 " stroke="#000000" stroke-width="5" fill="#FFFFFF" id="obs5" onclick="selectCube(this.id)"></path><path d="M 153,100 L 153,300 L 103,200 L 153,100 " stroke="#000000" stroke-width="5" fill="#FFFFFF" id="obs7" onclick="selectCube(this.id)"></path><path d="M 153,100 L 153,300 L 203,200 L 153,100 " stroke="#000000" stroke-width="5" fill="#FFFFFF" id="obs6" onclick="selectCube(this.id)"></path><path d="M 306,200 L 153,300 L 203,200 L 306,200 " stroke="#000000" stroke-width="5" fill="#FFFFFF" id="obs9" onclick="selectCube(this.id)"></path><path d="M 306,200 L 153,300 L 256,300 L 306,200 " stroke="#000000" stroke-width="5" fill="#FFFFFF" id="obs8" onclick="selectCube(this.id)"></path><path d="M 306,400 L 153,300 L 256,300 L 306,400 " stroke="#000000" stroke-width="5" fill="#FFFFFF" id="obs10" onclick="selectCube(this.id)"></path><path d="M 306,400 L 153,300 L 203,400 L 306,400 " stroke="#000000" stroke-width="5" fill="#FFFFFF" id="obs11" onclick="selectCube(this.id)"></path><ellipse cx="153" cy="100" ry="15" rx="15" fill="#ffffff" id="obs12" onclick="selectCube(this.id)" stroke-width="5" stroke="#000000" transform="rotate(0,153,100)"></ellipse><ellipse cx="0" cy="200" ry="15" rx="15" fill="#ffffff" id="obs13" onclick="selectCube(this.id)" stroke-width="5" stroke="#000000" transform="rotate(0,0,200)"></ellipse><ellipse cx="0" cy="400" ry="15" rx="15" fill="#ffffff" id="obs14" onclick="selectCube(this.id)" stroke-width="5" stroke="#000000" transform="rotate(0,0,400)"></ellipse></g><g id="copyPatternX13" transform="translate(306,600)"><path d="M 0,200 L 0,400 L 50,300 L 0,200 " stroke="#000000" stroke-width="5" fill="#ffffff" id="obs1" onclick="selectCube(this.id)"></path><path d="M 0,200 L 153,300 L 50,300 L 0,200 " stroke="#000000" stroke-width="5" fill="#ffffff" id="obs2" onclick="selectCube(this.id)"></path><path d="M 0,400 L 153,300 L 50,300 L 0,400 " stroke="#000000" stroke-width="5" fill="#FFFFFF" id="obs3" onclick="selectCube(this.id)"></path><path d="M 0,400 L 153,300 L 103,400 L 0,400 " stroke="#000000" stroke-width="5" fill="#FFFFFF" id="obs4" onclick="selectCube(this.id)"></path><path d="M 0,200 L 153,300 L 103,200 L 0,200 " stroke="#000000" stroke-width="5" fill="#FFFFFF" id="obs5" onclick="selectCube(this.id)"></path><path d="M 153,100 L 153,300 L 103,200 L 153,100 " stroke="#000000" stroke-width="5" fill="#FFFFFF" id="obs7" onclick="selectCube(this.id)"></path><path d="M 153,100 L 153,300 L 203,200 L 153,100 " stroke="#000000" stroke-width="5" fill="#FFFFFF" id="obs6" onclick="selectCube(this.id)"></path><path d="M 306,200 L 153,300 L 203,200 L 306,200 " stroke="#000000" stroke-width="5" fill="#FFFFFF" id="obs9" onclick="selectCube(this.id)"></path><path d="M 306,200 L 153,300 L 256,300 L 306,200 " stroke="#000000" stroke-width="5" fill="#FFFFFF" id="obs8" onclick="selectCube(this.id)"></path><path d="M 306,400 L 153,300 L 256,300 L 306,400 " stroke="#000000" stroke-width="5" fill="#FFFFFF" id="obs10" onclick="selectCube(this.id)"></path><path d="M 306,400 L 153,300 L 203,400 L 306,400 " stroke="#000000" stroke-width="5" fill="#FFFFFF" id="obs11" onclick="selectCube(this.id)"></path><ellipse cx="153" cy="100" ry="15" rx="15" fill="#ffffff" id="obs12" onclick="selectCube(this.id)" stroke-width="5" stroke="#000000" transform="rotate(0,153,100)"></ellipse><ellipse cx="0" cy="200" ry="15" rx="15" fill="#ffffff" id="obs13" onclick="selectCube(this.id)" stroke-width="5" stroke="#000000" transform="rotate(0,0,200)"></ellipse><ellipse cx="0" cy="400" ry="15" rx="15" fill="#ffffff" id="obs14" onclick="selectCube(this.id)" stroke-width="5" stroke="#000000" transform="rotate(0,0,400)"></ellipse></g><g id="copyPatternX23" transform="translate(612,600)"><path d="M 0,200 L 0,400 L 50,300 L 0,200 " stroke="#000000" stroke-width="5" fill="#ffffff" id="obs1" onclick="selectCube(this.id)"></path><path d="M 0,200 L 153,300 L 50,300 L 0,200 " stroke="#000000" stroke-width="5" fill="#ffffff" id="obs2" onclick="selectCube(this.id)"></path><path d="M 0,400 L 153,300 L 50,300 L 0,400 " stroke="#000000" stroke-width="5" fill="#FFFFFF" id="obs3" onclick="selectCube(this.id)"></path><path d="M 0,400 L 153,300 L 103,400 L 0,400 " stroke="#000000" stroke-width="5" fill="#FFFFFF" id="obs4" onclick="selectCube(this.id)"></path><path d="M 0,200 L 153,300 L 103,200 L 0,200 " stroke="#000000" stroke-width="5" fill="#FFFFFF" id="obs5" onclick="selectCube(this.id)"></path><path d="M 153,100 L 153,300 L 103,200 L 153,100 " stroke="#000000" stroke-width="5" fill="#FFFFFF" id="obs7" onclick="selectCube(this.id)"></path><path d="M 153,100 L 153,300 L 203,200 L 153,100 " stroke="#000000" stroke-width="5" fill="#FFFFFF" id="obs6" onclick="selectCube(this.id)"></path><path d="M 306,200 L 153,300 L 203,200 L 306,200 " stroke="#000000" stroke-width="5" fill="#FFFFFF" id="obs9" onclick="selectCube(this.id)"></path><path d="M 306,200 L 153,300 L 256,300 L 306,200 " stroke="#000000" stroke-width="5" fill="#FFFFFF" id="obs8" onclick="selectCube(this.id)"></path><path d="M 306,400 L 153,300 L 256,300 L 306,400 " stroke="#000000" stroke-width="5" fill="#FFFFFF" id="obs10" onclick="selectCube(this.id)"></path><path d="M 306,400 L 153,300 L 203,400 L 306,400 " stroke="#000000" stroke-width="5" fill="#FFFFFF" id="obs11" onclick="selectCube(this.id)"></path><ellipse cx="153" cy="100" ry="15" rx="15" fill="#ffffff" id="obs12" onclick="selectCube(this.id)" stroke-width="5" stroke="#000000" transform="rotate(0,153,100)"></ellipse><ellipse cx="0" cy="200" ry="15" rx="15" fill="#ffffff" id="obs13" onclick="selectCube(this.id)" stroke-width="5" stroke="#000000" transform="rotate(0,0,200)"></ellipse><ellipse cx="0" cy="400" ry="15" rx="15" fill="#ffffff" id="obs14" onclick="selectCube(this.id)" stroke-width="5" stroke="#000000" transform="rotate(0,0,400)"></ellipse></g><g id="copyPatternX33" transform="translate(918,600)"><path d="M 0,200 L 0,400 L 50,300 L 0,200 " stroke="#000000" stroke-width="5" fill="#ffffff" id="obs1" onclick="selectCube(this.id)"></path><path d="M 0,200 L 153,300 L 50,300 L 0,200 " stroke="#000000" stroke-width="5" fill="#ffffff" id="obs2" onclick="selectCube(this.id)"></path><path d="M 0,400 L 153,300 L 50,300 L 0,400 " stroke="#000000" stroke-width="5" fill="#FFFFFF" id="obs3" onclick="selectCube(this.id)"></path><path d="M 0,400 L 153,300 L 103,400 L 0,400 " stroke="#000000" stroke-width="5" fill="#FFFFFF" id="obs4" onclick="selectCube(this.id)"></path><path d="M 0,200 L 153,300 L 103,200 L 0,200 " stroke="#000000" stroke-width="5" fill="#FFFFFF" id="obs5" onclick="selectCube(this.id)"></path><path d="M 153,100 L 153,300 L 103,200 L 153,100 " stroke="#000000" stroke-width="5" fill="#FFFFFF" id="obs7" onclick="selectCube(this.id)"></path><path d="M 153,100 L 153,300 L 203,200 L 153,100 " stroke="#000000" stroke-width="5" fill="#FFFFFF" id="obs6" onclick="selectCube(this.id)"></path><path d="M 306,200 L 153,300 L 203,200 L 306,200 " stroke="#000000" stroke-width="5" fill="#FFFFFF" id="obs9" onclick="selectCube(this.id)"></path><path d="M 306,200 L 153,300 L 256,300 L 306,200 " stroke="#000000" stroke-width="5" fill="#FFFFFF" id="obs8" onclick="selectCube(this.id)"></path><path d="M 306,400 L 153,300 L 256,300 L 306,400 " stroke="#000000" stroke-width="5" fill="#FFFFFF" id="obs10" onclick="selectCube(this.id)"></path><path d="M 306,400 L 153,300 L 203,400 L 306,400 " stroke="#000000" stroke-width="5" fill="#FFFFFF" id="obs11" onclick="selectCube(this.id)"></path><ellipse cx="153" cy="100" ry="15" rx="15" fill="#ffffff" id="obs12" onclick="selectCube(this.id)" stroke-width="5" stroke="#000000" transform="rotate(0,153,100)"></ellipse><ellipse cx="0" cy="200" ry="15" rx="15" fill="#ffffff" id="obs13" onclick="selectCube(this.id)" stroke-width="5" stroke="#000000" transform="rotate(0,0,200)"></ellipse><ellipse cx="0" cy="400" ry="15" rx="15" fill="#ffffff" id="obs14" onclick="selectCube(this.id)" stroke-width="5" stroke="#000000" transform="rotate(0,0,400)"></ellipse></g><g id="copyPatternX04" transform="translate(0,800)"><path d="M 0,200 L 0,400 L 50,300 L 0,200 " stroke="#000000" stroke-width="5" fill="#ffffff" id="obs1" onclick="selectCube(this.id)"></path><path d="M 0,200 L 153,300 L 50,300 L 0,200 " stroke="#000000" stroke-width="5" fill="#ffffff" id="obs2" onclick="selectCube(this.id)"></path><path d="M 0,400 L 153,300 L 50,300 L 0,400 " stroke="#000000" stroke-width="5" fill="#FFFFFF" id="obs3" onclick="selectCube(this.id)"></path><path d="M 0,400 L 153,300 L 103,400 L 0,400 " stroke="#000000" stroke-width="5" fill="#FFFFFF" id="obs4" onclick="selectCube(this.id)"></path><path d="M 0,200 L 153,300 L 103,200 L 0,200 " stroke="#000000" stroke-width="5" fill="#FFFFFF" id="obs5" onclick="selectCube(this.id)"></path><path d="M 153,100 L 153,300 L 103,200 L 153,100 " stroke="#000000" stroke-width="5" fill="#FFFFFF" id="obs7" onclick="selectCube(this.id)"></path><path d="M 153,100 L 153,300 L 203,200 L 153,100 " stroke="#000000" stroke-width="5" fill="#FFFFFF" id="obs6" onclick="selectCube(this.id)"></path><path d="M 306,200 L 153,300 L 203,200 L 306,200 " stroke="#000000" stroke-width="5" fill="#FFFFFF" id="obs9" onclick="selectCube(this.id)"></path><path d="M 306,200 L 153,300 L 256,300 L 306,200 " stroke="#000000" stroke-width="5" fill="#FFFFFF" id="obs8" onclick="selectCube(this.id)"></path><path d="M 306,400 L 153,300 L 256,300 L 306,400 " stroke="#000000" stroke-width="5" fill="#FFFFFF" id="obs10" onclick="selectCube(this.id)"></path><path d="M 306,400 L 153,300 L 203,400 L 306,400 " stroke="#000000" stroke-width="5" fill="#FFFFFF" id="obs11" onclick="selectCube(this.id)"></path><ellipse cx="153" cy="100" ry="15" rx="15" fill="#ffffff" id="obs12" onclick="selectCube(this.id)" stroke-width="5" stroke="#000000" transform="rotate(0,153,100)"></ellipse><ellipse cx="0" cy="200" ry="15" rx="15" fill="#ffffff" id="obs13" onclick="selectCube(this.id)" stroke-width="5" stroke="#000000" transform="rotate(0,0,200)"></ellipse><ellipse cx="0" cy="400" ry="15" rx="15" fill="#ffffff" id="obs14" onclick="selectCube(this.id)" stroke-width="5" stroke="#000000" transform="rotate(0,0,400)"></ellipse></g><g id="copyPatternX14" transform="translate(306,800)"><path d="M 0,200 L 0,400 L 50,300 L 0,200 " stroke="#000000" stroke-width="5" fill="#ffffff" id="obs1" onclick="selectCube(this.id)"></path><path d="M 0,200 L 153,300 L 50,300 L 0,200 " stroke="#000000" stroke-width="5" fill="#ffffff" id="obs2" onclick="selectCube(this.id)"></path><path d="M 0,400 L 153,300 L 50,300 L 0,400 " stroke="#000000" stroke-width="5" fill="#FFFFFF" id="obs3" onclick="selectCube(this.id)"></path><path d="M 0,400 L 153,300 L 103,400 L 0,400 " stroke="#000000" stroke-width="5" fill="#FFFFFF" id="obs4" onclick="selectCube(this.id)"></path><path d="M 0,200 L 153,300 L 103,200 L 0,200 " stroke="#000000" stroke-width="5" fill="#FFFFFF" id="obs5" onclick="selectCube(this.id)"></path><path d="M 153,100 L 153,300 L 103,200 L 153,100 " stroke="#000000" stroke-width="5" fill="#FFFFFF" id="obs7" onclick="selectCube(this.id)"></path><path d="M 153,100 L 153,300 L 203,200 L 153,100 " stroke="#000000" stroke-width="5" fill="#FFFFFF" id="obs6" onclick="selectCube(this.id)"></path><path d="M 306,200 L 153,300 L 203,200 L 306,200 " stroke="#000000" stroke-width="5" fill="#FFFFFF" id="obs9" onclick="selectCube(this.id)"></path><path d="M 306,200 L 153,300 L 256,300 L 306,200 " stroke="#000000" stroke-width="5" fill="#FFFFFF" id="obs8" onclick="selectCube(this.id)"></path><path d="M 306,400 L 153,300 L 256,300 L 306,400 " stroke="#000000" stroke-width="5" fill="#FFFFFF" id="obs10" onclick="selectCube(this.id)"></path><path d="M 306,400 L 153,300 L 203,400 L 306,400 " stroke="#000000" stroke-width="5" fill="#FFFFFF" id="obs11" onclick="selectCube(this.id)"></path><ellipse cx="153" cy="100" ry="15" rx="15" fill="#ffffff" id="obs12" onclick="selectCube(this.id)" stroke-width="5" stroke="#000000" transform="rotate(0,153,100)"></ellipse><ellipse cx="0" cy="200" ry="15" rx="15" fill="#ffffff" id="obs13" onclick="selectCube(this.id)" stroke-width="5" stroke="#000000" transform="rotate(0,0,200)"></ellipse><ellipse cx="0" cy="400" ry="15" rx="15" fill="#ffffff" id="obs14" onclick="selectCube(this.id)" stroke-width="5" stroke="#000000" transform="rotate(0,0,400)"></ellipse></g><g id="copyPatternX24" transform="translate(612,800)"><path d="M 0,200 L 0,400 L 50,300 L 0,200 " stroke="#000000" stroke-width="5" fill="#ffffff" id="obs1" onclick="selectCube(this.id)"></path><path d="M 0,200 L 153,300 L 50,300 L 0,200 " stroke="#000000" stroke-width="5" fill="#ffffff" id="obs2" onclick="selectCube(this.id)"></path><path d="M 0,400 L 153,300 L 50,300 L 0,400 " stroke="#000000" stroke-width="5" fill="#FFFFFF" id="obs3" onclick="selectCube(this.id)"></path><path d="M 0,400 L 153,300 L 103,400 L 0,400 " stroke="#000000" stroke-width="5" fill="#FFFFFF" id="obs4" onclick="selectCube(this.id)"></path><path d="M 0,200 L 153,300 L 103,200 L 0,200 " stroke="#000000" stroke-width="5" fill="#FFFFFF" id="obs5" onclick="selectCube(this.id)"></path><path d="M 153,100 L 153,300 L 103,200 L 153,100 " stroke="#000000" stroke-width="5" fill="#FFFFFF" id="obs7" onclick="selectCube(this.id)"></path><path d="M 153,100 L 153,300 L 203,200 L 153,100 " stroke="#000000" stroke-width="5" fill="#FFFFFF" id="obs6" onclick="selectCube(this.id)"></path><path d="M 306,200 L 153,300 L 203,200 L 306,200 " stroke="#000000" stroke-width="5" fill="#FFFFFF" id="obs9" onclick="selectCube(this.id)"></path><path d="M 306,200 L 153,300 L 256,300 L 306,200 " stroke="#000000" stroke-width="5" fill="#FFFFFF" id="obs8" onclick="selectCube(this.id)"></path><path d="M 306,400 L 153,300 L 256,300 L 306,400 " stroke="#000000" stroke-width="5" fill="#FFFFFF" id="obs10" onclick="selectCube(this.id)"></path><path d="M 306,400 L 153,300 L 203,400 L 306,400 " stroke="#000000" stroke-width="5" fill="#FFFFFF" id="obs11" onclick="selectCube(this.id)"></path><ellipse cx="153" cy="100" ry="15" rx="15" fill="#ffffff" id="obs12" onclick="selectCube(this.id)" stroke-width="5" stroke="#000000" transform="rotate(0,153,100)"></ellipse><ellipse cx="0" cy="200" ry="15" rx="15" fill="#ffffff" id="obs13" onclick="selectCube(this.id)" stroke-width="5" stroke="#000000" transform="rotate(0,0,200)"></ellipse><ellipse cx="0" cy="400" ry="15" rx="15" fill="#ffffff" id="obs14" onclick="selectCube(this.id)" stroke-width="5" stroke="#000000" transform="rotate(0,0,400)"></ellipse></g><g id="copyPatternX34" transform="translate(918,800)"><path d="M 0,200 L 0,400 L 50,300 L 0,200 " stroke="#000000" stroke-width="5" fill="#ffffff" id="obs1" onclick="selectCube(this.id)"></path><path d="M 0,200 L 153,300 L 50,300 L 0,200 " stroke="#000000" stroke-width="5" fill="#ffffff" id="obs2" onclick="selectCube(this.id)"></path><path d="M 0,400 L 153,300 L 50,300 L 0,400 " stroke="#000000" stroke-width="5" fill="#FFFFFF" id="obs3" onclick="selectCube(this.id)"></path><path d="M 0,400 L 153,300 L 103,400 L 0,400 " stroke="#000000" stroke-width="5" fill="#FFFFFF" id="obs4" onclick="selectCube(this.id)"></path><path d="M 0,200 L 153,300 L 103,200 L 0,200 " stroke="#000000" stroke-width="5" fill="#FFFFFF" id="obs5" onclick="selectCube(this.id)"></path><path d="M 153,100 L 153,300 L 103,200 L 153,100 " stroke="#000000" stroke-width="5" fill="#FFFFFF" id="obs7" onclick="selectCube(this.id)"></path><path d="M 153,100 L 153,300 L 203,200 L 153,100 " stroke="#000000" stroke-width="5" fill="#FFFFFF" id="obs6" onclick="selectCube(this.id)"></path><path d="M 306,200 L 153,300 L 203,200 L 306,200 " stroke="#000000" stroke-width="5" fill="#FFFFFF" id="obs9" onclick="selectCube(this.id)"></path><path d="M 306,200 L 153,300 L 256,300 L 306,200 " stroke="#000000" stroke-width="5" fill="#FFFFFF" id="obs8" onclick="selectCube(this.id)"></path><path d="M 306,400 L 153,300 L 256,300 L 306,400 " stroke="#000000" stroke-width="5" fill="#FFFFFF" id="obs10" onclick="selectCube(this.id)"></path><path d="M 306,400 L 153,300 L 203,400 L 306,400 " stroke="#000000" stroke-width="5" fill="#FFFFFF" id="obs11" onclick="selectCube(this.id)"></path><ellipse cx="153" cy="100" ry="15" rx="15" fill="#ffffff" id="obs12" onclick="selectCube(this.id)" stroke-width="5" stroke="#000000" transform="rotate(0,153,100)"></ellipse><ellipse cx="0" cy="200" ry="15" rx="15" fill="#ffffff" id="obs13" onclick="selectCube(this.id)" stroke-width="5" stroke="#000000" transform="rotate(0,0,200)"></ellipse><ellipse cx="0" cy="400" ry="15" rx="15" fill="#ffffff" id="obs14" onclick="selectCube(this.id)" stroke-width="5" stroke="#000000" transform="rotate(0,0,400)"></ellipse></g></svg>