<svg id="fakeSVG" viewbox="0,0,1000,1000" preserveAspectRatio="xMidYMid slice" xmlns="http://www.w3.org/2000/svg" version="1.1" width="1000" height="1000">
		<g id="basicPattern"><rect x="200" y="5" height="200" width="30" fill="#000000" id="obs1" onclick="selectCube(this.id)" stroke-width="0" stroke="#000000" transform="rotate(0,215,105)"></rect><rect x="235" y="5" height="200" width="30" fill="#000000" id="obs3" onclick="selectCube(this.id)" stroke-width="0" stroke="#000000" transform="rotate(0,250,105)"></rect><rect x="270" y="5" height="200" width="30" fill="#000000" id="obs4" onclick="selectCube(this.id)" stroke-width="0" stroke="#000000" transform="rotate(0,285,105)"></rect><rect x="-5" y="52.5" height="30" width="200" fill="#000000" id="obs5" onclick="selectCube(this.id)" stroke-width="0" stroke="#000000" transform="rotate(0,95,67.5)"></rect><rect x="-5" y="122.5" height="30" width="200" fill="#000000" id="obs2" onclick="selectCube(this.id)" stroke-width="0" stroke="#000000" transform="rotate(0,95,137.5)"></rect><rect x="-5" y="87.5" height="30" width="200" fill="#000000" id="obs6" onclick="selectCube(this.id)" stroke-width="0" stroke="#000000" transform="rotate(0,95,102.5)"></rect></g><g id="copyPatternX00" transform="translate(0,0)"><rect x="200" y="5" height="200" width="30" fill="#000000" id="obs1" onclick="selectCube(this.id)" stroke-width="0" stroke="#000000" transform="rotate(0,215,105)"></rect><rect x="235" y="5" height="200" width="30" fill="#000000" id="obs3" onclick="selectCube(this.id)" stroke-width="0" stroke="#000000" transform="rotate(0,250,105)"></rect><rect x="270" y="5" height="200" width="30" fill="#000000" id="obs4" onclick="selectCube(this.id)" stroke-width="0" stroke="#000000" transform="rotate(0,285,105)"></rect><rect x="-5" y="52.5" height="30" width="200" fill="#000000" id="obs5" onclick="selectCube(this.id)" stroke-width="0" stroke="#000000" transform="rotate(0,95,67.5)"></rect><rect x="-5" y="122.5" height="30" width="200" fill="#000000" id="obs2" onclick="selectCube(this.id)" stroke-width="0" stroke="#000000" transform="rotate(0,95,137.5)"></rect><rect x="-5" y="87.5" height="30" width="200" fill="#000000" id="obs6" onclick="selectCube(this.id)" stroke-width="0" stroke="#000000" transform="rotate(0,95,102.5)"></rect></g><g id="copyPatternX10" transform="translate(305,0)"><rect x="200" y="5" height="200" width="30" fill="#000000" id="obs1" onclick="selectCube(this.id)" stroke-width="0" stroke="#000000" transform="rotate(0,215,105)"></rect><rect x="235" y="5" height="200" width="30" fill="#000000" id="obs3" onclick="selectCube(this.id)" stroke-width="0" stroke="#000000" transform="rotate(0,250,105)"></rect><rect x="270" y="5" height="200" width="30" fill="#000000" id="obs4" onclick="selectCube(this.id)" stroke-width="0" stroke="#000000" transform="rotate(0,285,105)"></rect><rect x="-5" y="52.5" height="30" width="200" fill="#000000" id="obs5" onclick="selectCube(this.id)" stroke-width="0" stroke="#000000" transform="rotate(0,95,67.5)"></rect><rect x="-5" y="122.5" height="30" width="200" fill="#000000" id="obs2" onclick="selectCube(this.id)" stroke-width="0" stroke="#000000" transform="rotate(0,95,137.5)"></rect><rect x="-5" y="87.5" height="30" width="200" fill="#000000" id="obs6" onclick="selectCube(this.id)" stroke-width="0" stroke="#000000" transform="rotate(0,95,102.5)"></rect></g><g id="copyPatternX20" transform="translate(610,0)"><rect x="200" y="5" height="200" width="30" fill="#000000" id="obs1" onclick="selectCube(this.id)" stroke-width="0" stroke="#000000" transform="rotate(0,215,105)"></rect><rect x="235" y="5" height="200" width="30" fill="#000000" id="obs3" onclick="selectCube(this.id)" stroke-width="0" stroke="#000000" transform="rotate(0,250,105)"></rect><rect x="270" y="5" height="200" width="30" fill="#000000" id="obs4" onclick="selectCube(this.id)" stroke-width="0" stroke="#000000" transform="rotate(0,285,105)"></rect><rect x="-5" y="52.5" height="30" width="200" fill="#000000" id="obs5" onclick="selectCube(this.id)" stroke-width="0" stroke="#000000" transform="rotate(0,95,67.5)"></rect><rect x="-5" y="122.5" height="30" width="200" fill="#000000" id="obs2" onclick="selectCube(this.id)" stroke-width="0" stroke="#000000" transform="rotate(0,95,137.5)"></rect><rect x="-5" y="87.5" height="30" width="200" fill="#000000" id="obs6" onclick="selectCube(this.id)" stroke-width="0" stroke="#000000" transform="rotate(0,95,102.5)"></rect></g><g id="copyPatternX30" transform="translate(915,0)"><rect x="200" y="5" height="200" width="30" fill="#000000" id="obs1" onclick="selectCube(this.id)" stroke-width="0" stroke="#000000" transform="rotate(0,215,105)"></rect><rect x="235" y="5" height="200" width="30" fill="#000000" id="obs3" onclick="selectCube(this.id)" stroke-width="0" stroke="#000000" transform="rotate(0,250,105)"></rect><rect x="270" y="5" height="200" width="30" fill="#000000" id="obs4" onclick="selectCube(this.id)" stroke-width="0" stroke="#000000" transform="rotate(0,285,105)"></rect><rect x="-5" y="52.5" height="30" width="200" fill="#000000" id="obs5" onclick="selectCube(this.id)" stroke-width="0" stroke="#000000" transform="rotate(0,95,67.5)"></rect><rect x="-5" y="122.5" height="30" width="200" fill="#000000" id="obs2" onclick="selectCube(this.id)" stroke-width="0" stroke="#000000" transform="rotate(0,95,137.5)"></rect><rect x="-5" y="87.5" height="30" width="200" fill="#000000" id="obs6" onclick="selectCube(this.id)" stroke-width="0" stroke="#000000" transform="rotate(0,95,102.5)"></rect></g><g id="copyPatternX01" transform="translate(-150,152.5)"><rect x="200" y="5" height="200" width="30" fill="#000000" id="obs1" onclick="selectCube(this.id)" stroke-width="0" stroke="#000000" transform="rotate(0,215,105)"></rect><rect x="235" y="5" height="200" width="30" fill="#000000" id="obs3" onclick="selectCube(this.id)" stroke-width="0" stroke="#000000" transform="rotate(0,250,105)"></rect><rect x="270" y="5" height="200" width="30" fill="#000000" id="obs4" onclick="selectCube(this.id)" stroke-width="0" stroke="#000000" transform="rotate(0,285,105)"></rect><rect x="-5" y="52.5" height="30" width="200" fill="#000000" id="obs5" onclick="selectCube(this.id)" stroke-width="0" stroke="#000000" transform="rotate(0,95,67.5)"></rect><rect x="-5" y="122.5" height="30" width="200" fill="#000000" id="obs2" onclick="selectCube(this.id)" stroke-width="0" stroke="#000000" transform="rotate(0,95,137.5)"></rect><rect x="-5" y="87.5" height="30" width="200" fill="#000000" id="obs6" onclick="selectCube(this.id)" stroke-width="0" stroke="#000000" transform="rotate(0,95,102.5)"></rect></g><g id="copyPatternX11" transform="translate(155,152.5)"><rect x="200" y="5" height="200" width="30" fill="#000000" id="obs1" onclick="selectCube(this.id)" stroke-width="0" stroke="#000000" transform="rotate(0,215,105)"></rect><rect x="235" y="5" height="200" width="30" fill="#000000" id="obs3" onclick="selectCube(this.id)" stroke-width="0" stroke="#000000" transform="rotate(0,250,105)"></rect><rect x="270" y="5" height="200" width="30" fill="#000000" id="obs4" onclick="selectCube(this.id)" stroke-width="0" stroke="#000000" transform="rotate(0,285,105)"></rect><rect x="-5" y="52.5" height="30" width="200" fill="#000000" id="obs5" onclick="selectCube(this.id)" stroke-width="0" stroke="#000000" transform="rotate(0,95,67.5)"></rect><rect x="-5" y="122.5" height="30" width="200" fill="#000000" id="obs2" onclick="selectCube(this.id)" stroke-width="0" stroke="#000000" transform="rotate(0,95,137.5)"></rect><rect x="-5" y="87.5" height="30" width="200" fill="#000000" id="obs6" onclick="selectCube(this.id)" stroke-width="0" stroke="#000000" transform="rotate(0,95,102.5)"></rect></g><g id="copyPatternX21" transform="translate(460,152.5)"><rect x="200" y="5" height="200" width="30" fill="#000000" id="obs1" onclick="selectCube(this.id)" stroke-width="0" stroke="#000000" transform="rotate(0,215,105)"></rect><rect x="235" y="5" height="200" width="30" fill="#000000" id="obs3" onclick="selectCube(this.id)" stroke-width="0" stroke="#000000" transform="rotate(0,250,105)"></rect><rect x="270" y="5" height="200" width="30" fill="#000000" id="obs4" onclick="selectCube(this.id)" stroke-width="0" stroke="#000000" transform="rotate(0,285,105)"></rect><rect x="-5" y="52.5" height="30" width="200" fill="#000000" id="obs5" onclick="selectCube(this.id)" stroke-width="0" stroke="#000000" transform="rotate(0,95,67.5)"></rect><rect x="-5" y="122.5" height="30" width="200" fill="#000000" id="obs2" onclick="selectCube(this.id)" stroke-width="0" stroke="#000000" transform="rotate(0,95,137.5)"></rect><rect x="-5" y="87.5" height="30" width="200" fill="#000000" id="obs6" onclick="selectCube(this.id)" stroke-width="0" stroke="#000000" transform="rotate(0,95,102.5)"></rect></g><g id="copyPatternX31" transform="translate(765,152.5)"><rect x="200" y="5" height="200" width="30" fill="#000000" id="obs1" onclick="selectCube(this.id)" stroke-width="0" stroke="#000000" transform="rotate(0,215,105)"></rect><rect x="235" y="5" height="200" width="30" fill="#000000" id="obs3" onclick="selectCube(this.id)" stroke-width="0" stroke="#000000" transform="rotate(0,250,105)"></rect><rect x="270" y="5" height="200" width="30" fill="#000000" id="obs4" onclick="selectCube(this.id)" stroke-width="0" stroke="#000000" transform="rotate(0,285,105)"></rect><rect x="-5" y="52.5" height="30" width="200" fill="#000000" id="obs5" onclick="selectCube(this.id)" stroke-width="0" stroke="#000000" transform="rotate(0,95,67.5)"></rect><rect x="-5" y="122.5" height="30" width="200" fill="#000000" id="obs2" onclick="selectCube(this.id)" stroke-width="0" stroke="#000000" transform="rotate(0,95,137.5)"></rect><rect x="-5" y="87.5" height="30" width="200" fill="#000000" id="obs6" onclick="selectCube(this.id)" stroke-width="0" stroke="#000000" transform="rotate(0,95,102.5)"></rect></g><g id="copyPatternX02" transform="translate(0,305)"><rect x="200" y="5" height="200" width="30" fill="#000000" id="obs1" onclick="selectCube(this.id)" stroke-width="0" stroke="#000000" transform="rotate(0,215,105)"></rect><rect x="235" y="5" height="200" width="30" fill="#000000" id="obs3" onclick="selectCube(this.id)" stroke-width="0" stroke="#000000" transform="rotate(0,250,105)"></rect><rect x="270" y="5" height="200" width="30" fill="#000000" id="obs4" onclick="selectCube(this.id)" stroke-width="0" stroke="#000000" transform="rotate(0,285,105)"></rect><rect x="-5" y="52.5" height="30" width="200" fill="#000000" id="obs5" onclick="selectCube(this.id)" stroke-width="0" stroke="#000000" transform="rotate(0,95,67.5)"></rect><rect x="-5" y="122.5" height="30" width="200" fill="#000000" id="obs2" onclick="selectCube(this.id)" stroke-width="0" stroke="#000000" transform="rotate(0,95,137.5)"></rect><rect x="-5" y="87.5" height="30" width="200" fill="#000000" id="obs6" onclick="selectCube(this.id)" stroke-width="0" stroke="#000000" transform="rotate(0,95,102.5)"></rect></g><g id="copyPatternX12" transform="translate(305,305)"><rect x="200" y="5" height="200" width="30" fill="#000000" id="obs1" onclick="selectCube(this.id)" stroke-width="0" stroke="#000000" transform="rotate(0,215,105)"></rect><rect x="235" y="5" height="200" width="30" fill="#000000" id="obs3" onclick="selectCube(this.id)" stroke-width="0" stroke="#000000" transform="rotate(0,250,105)"></rect><rect x="270" y="5" height="200" width="30" fill="#000000" id="obs4" onclick="selectCube(this.id)" stroke-width="0" stroke="#000000" transform="rotate(0,285,105)"></rect><rect x="-5" y="52.5" height="30" width="200" fill="#000000" id="obs5" onclick="selectCube(this.id)" stroke-width="0" stroke="#000000" transform="rotate(0,95,67.5)"></rect><rect x="-5" y="122.5" height="30" width="200" fill="#000000" id="obs2" onclick="selectCube(this.id)" stroke-width="0" stroke="#000000" transform="rotate(0,95,137.5)"></rect><rect x="-5" y="87.5" height="30" width="200" fill="#000000" id="obs6" onclick="selectCube(this.id)" stroke-width="0" stroke="#000000" transform="rotate(0,95,102.5)"></rect></g><g id="copyPatternX22" transform="translate(610,305)"><rect x="200" y="5" height="200" width="30" fill="#000000" id="obs1" onclick="selectCube(this.id)" stroke-width="0" stroke="#000000" transform="rotate(0,215,105)"></rect><rect x="235" y="5" height="200" width="30" fill="#000000" id="obs3" onclick="selectCube(this.id)" stroke-width="0" stroke="#000000" transform="rotate(0,250,105)"></rect><rect x="270" y="5" height="200" width="30" fill="#000000" id="obs4" onclick="selectCube(this.id)" stroke-width="0" stroke="#000000" transform="rotate(0,285,105)"></rect><rect x="-5" y="52.5" height="30" width="200" fill="#000000" id="obs5" onclick="selectCube(this.id)" stroke-width="0" stroke="#000000" transform="rotate(0,95,67.5)"></rect><rect x="-5" y="122.5" height="30" width="200" fill="#000000" id="obs2" onclick="selectCube(this.id)" stroke-width="0" stroke="#000000" transform="rotate(0,95,137.5)"></rect><rect x="-5" y="87.5" height="30" width="200" fill="#000000" id="obs6" onclick="selectCube(this.id)" stroke-width="0" stroke="#000000" transform="rotate(0,95,102.5)"></rect></g><g id="copyPatternX32" transform="translate(915,305)"><rect x="200" y="5" height="200" width="30" fill="#000000" id="obs1" onclick="selectCube(this.id)" stroke-width="0" stroke="#000000" transform="rotate(0,215,105)"></rect><rect x="235" y="5" height="200" width="30" fill="#000000" id="obs3" onclick="selectCube(this.id)" stroke-width="0" stroke="#000000" transform="rotate(0,250,105)"></rect><rect x="270" y="5" height="200" width="30" fill="#000000" id="obs4" onclick="selectCube(this.id)" stroke-width="0" stroke="#000000" transform="rotate(0,285,105)"></rect><rect x="-5" y="52.5" height="30" width="200" fill="#000000" id="obs5" onclick="selectCube(this.id)" stroke-width="0" stroke="#000000" transform="rotate(0,95,67.5)"></rect><rect x="-5" y="122.5" height="30" width="200" fill="#000000" id="obs2" onclick="selectCube(this.id)" stroke-width="0" stroke="#000000" transform="rotate(0,95,137.5)"></rect><rect x="-5" y="87.5" height="30" width="200" fill="#000000" id="obs6" onclick="selectCube(this.id)" stroke-width="0" stroke="#000000" transform="rotate(0,95,102.5)"></rect></g><g id="copyPatternX03" transform="translate(-150,457.5)"><rect x="200" y="5" height="200" width="30" fill="#000000" id="obs1" onclick="selectCube(this.id)" stroke-width="0" stroke="#000000" transform="rotate(0,215,105)"></rect><rect x="235" y="5" height="200" width="30" fill="#000000" id="obs3" onclick="selectCube(this.id)" stroke-width="0" stroke="#000000" transform="rotate(0,250,105)"></rect><rect x="270" y="5" height="200" width="30" fill="#000000" id="obs4" onclick="selectCube(this.id)" stroke-width="0" stroke="#000000" transform="rotate(0,285,105)"></rect><rect x="-5" y="52.5" height="30" width="200" fill="#000000" id="obs5" onclick="selectCube(this.id)" stroke-width="0" stroke="#000000" transform="rotate(0,95,67.5)"></rect><rect x="-5" y="122.5" height="30" width="200" fill="#000000" id="obs2" onclick="selectCube(this.id)" stroke-width="0" stroke="#000000" transform="rotate(0,95,137.5)"></rect><rect x="-5" y="87.5" height="30" width="200" fill="#000000" id="obs6" onclick="selectCube(this.id)" stroke-width="0" stroke="#000000" transform="rotate(0,95,102.5)"></rect></g><g id="copyPatternX13" transform="translate(155,457.5)"><rect x="200" y="5" height="200" width="30" fill="#000000" id="obs1" onclick="selectCube(this.id)" stroke-width="0" stroke="#000000" transform="rotate(0,215,105)"></rect><rect x="235" y="5" height="200" width="30" fill="#000000" id="obs3" onclick="selectCube(this.id)" stroke-width="0" stroke="#000000" transform="rotate(0,250,105)"></rect><rect x="270" y="5" height="200" width="30" fill="#000000" id="obs4" onclick="selectCube(this.id)" stroke-width="0" stroke="#000000" transform="rotate(0,285,105)"></rect><rect x="-5" y="52.5" height="30" width="200" fill="#000000" id="obs5" onclick="selectCube(this.id)" stroke-width="0" stroke="#000000" transform="rotate(0,95,67.5)"></rect><rect x="-5" y="122.5" height="30" width="200" fill="#000000" id="obs2" onclick="selectCube(this.id)" stroke-width="0" stroke="#000000" transform="rotate(0,95,137.5)"></rect><rect x="-5" y="87.5" height="30" width="200" fill="#000000" id="obs6" onclick="selectCube(this.id)" stroke-width="0" stroke="#000000" transform="rotate(0,95,102.5)"></rect></g><g id="copyPatternX23" transform="translate(460,457.5)"><rect x="200" y="5" height="200" width="30" fill="#000000" id="obs1" onclick="selectCube(this.id)" stroke-width="0" stroke="#000000" transform="rotate(0,215,105)"></rect><rect x="235" y="5" height="200" width="30" fill="#000000" id="obs3" onclick="selectCube(this.id)" stroke-width="0" stroke="#000000" transform="rotate(0,250,105)"></rect><rect x="270" y="5" height="200" width="30" fill="#000000" id="obs4" onclick="selectCube(this.id)" stroke-width="0" stroke="#000000" transform="rotate(0,285,105)"></rect><rect x="-5" y="52.5" height="30" width="200" fill="#000000" id="obs5" onclick="selectCube(this.id)" stroke-width="0" stroke="#000000" transform="rotate(0,95,67.5)"></rect><rect x="-5" y="122.5" height="30" width="200" fill="#000000" id="obs2" onclick="selectCube(this.id)" stroke-width="0" stroke="#000000" transform="rotate(0,95,137.5)"></rect><rect x="-5" y="87.5" height="30" width="200" fill="#000000" id="obs6" onclick="selectCube(this.id)" stroke-width="0" stroke="#000000" transform="rotate(0,95,102.5)"></rect></g><g id="copyPatternX33" transform="translate(765,457.5)"><rect x="200" y="5" height="200" width="30" fill="#000000" id="obs1" onclick="selectCube(this.id)" stroke-width="0" stroke="#000000" transform="rotate(0,215,105)"></rect><rect x="235" y="5" height="200" width="30" fill="#000000" id="obs3" onclick="selectCube(this.id)" stroke-width="0" stroke="#000000" transform="rotate(0,250,105)"></rect><rect x="270" y="5" height="200" width="30" fill="#000000" id="obs4" onclick="selectCube(this.id)" stroke-width="0" stroke="#000000" transform="rotate(0,285,105)"></rect><rect x="-5" y="52.5" height="30" width="200" fill="#000000" id="obs5" onclick="selectCube(this.id)" stroke-width="0" stroke="#000000" transform="rotate(0,95,67.5)"></rect><rect x="-5" y="122.5" height="30" width="200" fill="#000000" id="obs2" onclick="selectCube(this.id)" stroke-width="0" stroke="#000000" transform="rotate(0,95,137.5)"></rect><rect x="-5" y="87.5" height="30" width="200" fill="#000000" id="obs6" onclick="selectCube(this.id)" stroke-width="0" stroke="#000000" transform="rotate(0,95,102.5)"></rect></g><g id="copyPatternX04" transform="translate(0,610)"><rect x="200" y="5" height="200" width="30" fill="#000000" id="obs1" onclick="selectCube(this.id)" stroke-width="0" stroke="#000000" transform="rotate(0,215,105)"></rect><rect x="235" y="5" height="200" width="30" fill="#000000" id="obs3" onclick="selectCube(this.id)" stroke-width="0" stroke="#000000" transform="rotate(0,250,105)"></rect><rect x="270" y="5" height="200" width="30" fill="#000000" id="obs4" onclick="selectCube(this.id)" stroke-width="0" stroke="#000000" transform="rotate(0,285,105)"></rect><rect x="-5" y="52.5" height="30" width="200" fill="#000000" id="obs5" onclick="selectCube(this.id)" stroke-width="0" stroke="#000000" transform="rotate(0,95,67.5)"></rect><rect x="-5" y="122.5" height="30" width="200" fill="#000000" id="obs2" onclick="selectCube(this.id)" stroke-width="0" stroke="#000000" transform="rotate(0,95,137.5)"></rect><rect x="-5" y="87.5" height="30" width="200" fill="#000000" id="obs6" onclick="selectCube(this.id)" stroke-width="0" stroke="#000000" transform="rotate(0,95,102.5)"></rect></g><g id="copyPatternX14" transform="translate(305,610)"><rect x="200" y="5" height="200" width="30" fill="#000000" id="obs1" onclick="selectCube(this.id)" stroke-width="0" stroke="#000000" transform="rotate(0,215,105)"></rect><rect x="235" y="5" height="200" width="30" fill="#000000" id="obs3" onclick="selectCube(this.id)" stroke-width="0" stroke="#000000" transform="rotate(0,250,105)"></rect><rect x="270" y="5" height="200" width="30" fill="#000000" id="obs4" onclick="selectCube(this.id)" stroke-width="0" stroke="#000000" transform="rotate(0,285,105)"></rect><rect x="-5" y="52.5" height="30" width="200" fill="#000000" id="obs5" onclick="selectCube(this.id)" stroke-width="0" stroke="#000000" transform="rotate(0,95,67.5)"></rect><rect x="-5" y="122.5" height="30" width="200" fill="#000000" id="obs2" onclick="selectCube(this.id)" stroke-width="0" stroke="#000000" transform="rotate(0,95,137.5)"></rect><rect x="-5" y="87.5" height="30" width="200" fill="#000000" id="obs6" onclick="selectCube(this.id)" stroke-width="0" stroke="#000000" transform="rotate(0,95,102.5)"></rect></g><g id="copyPatternX24" transform="translate(610,610)"><rect x="200" y="5" height="200" width="30" fill="#000000" id="obs1" onclick="selectCube(this.id)" stroke-width="0" stroke="#000000" transform="rotate(0,215,105)"></rect><rect x="235" y="5" height="200" width="30" fill="#000000" id="obs3" onclick="selectCube(this.id)" stroke-width="0" stroke="#000000" transform="rotate(0,250,105)"></rect><rect x="270" y="5" height="200" width="30" fill="#000000" id="obs4" onclick="selectCube(this.id)" stroke-width="0" stroke="#000000" transform="rotate(0,285,105)"></rect><rect x="-5" y="52.5" height="30" width="200" fill="#000000" id="obs5" onclick="selectCube(this.id)" stroke-width="0" stroke="#000000" transform="rotate(0,95,67.5)"></rect><rect x="-5" y="122.5" height="30" width="200" fill="#000000" id="obs2" onclick="selectCube(this.id)" stroke-width="0" stroke="#000000" transform="rotate(0,95,137.5)"></rect><rect x="-5" y="87.5" height="30" width="200" fill="#000000" id="obs6" onclick="selectCube(this.id)" stroke-width="0" stroke="#000000" transform="rotate(0,95,102.5)"></rect></g><g id="copyPatternX34" transform="translate(915,610)"><rect x="200" y="5" height="200" width="30" fill="#000000" id="obs1" onclick="selectCube(this.id)" stroke-width="0" stroke="#000000" transform="rotate(0,215,105)"></rect><rect x="235" y="5" height="200" width="30" fill="#000000" id="obs3" onclick="selectCube(this.id)" stroke-width="0" stroke="#000000" transform="rotate(0,250,105)"></rect><rect x="270" y="5" height="200" width="30" fill="#000000" id="obs4" onclick="selectCube(this.id)" stroke-width="0" stroke="#000000" transform="rotate(0,285,105)"></rect><rect x="-5" y="52.5" height="30" width="200" fill="#000000" id="obs5" onclick="selectCube(this.id)" stroke-width="0" stroke="#000000" transform="rotate(0,95,67.5)"></rect><rect x="-5" y="122.5" height="30" width="200" fill="#000000" id="obs2" onclick="selectCube(this.id)" stroke-width="0" stroke="#000000" transform="rotate(0,95,137.5)"></rect><rect x="-5" y="87.5" height="30" width="200" fill="#000000" id="obs6" onclick="selectCube(this.id)" stroke-width="0" stroke="#000000" transform="rotate(0,95,102.5)"></rect></g><g id="copyPatternX05" transform="translate(-150,762.5)"><rect x="200" y="5" height="200" width="30" fill="#000000" id="obs1" onclick="selectCube(this.id)" stroke-width="0" stroke="#000000" transform="rotate(0,215,105)"></rect><rect x="235" y="5" height="200" width="30" fill="#000000" id="obs3" onclick="selectCube(this.id)" stroke-width="0" stroke="#000000" transform="rotate(0,250,105)"></rect><rect x="270" y="5" height="200" width="30" fill="#000000" id="obs4" onclick="selectCube(this.id)" stroke-width="0" stroke="#000000" transform="rotate(0,285,105)"></rect><rect x="-5" y="52.5" height="30" width="200" fill="#000000" id="obs5" onclick="selectCube(this.id)" stroke-width="0" stroke="#000000" transform="rotate(0,95,67.5)"></rect><rect x="-5" y="122.5" height="30" width="200" fill="#000000" id="obs2" onclick="selectCube(this.id)" stroke-width="0" stroke="#000000" transform="rotate(0,95,137.5)"></rect><rect x="-5" y="87.5" height="30" width="200" fill="#000000" id="obs6" onclick="selectCube(this.id)" stroke-width="0" stroke="#000000" transform="rotate(0,95,102.5)"></rect></g><g id="copyPatternX15" transform="translate(155,762.5)"><rect x="200" y="5" height="200" width="30" fill="#000000" id="obs1" onclick="selectCube(this.id)" stroke-width="0" stroke="#000000" transform="rotate(0,215,105)"></rect><rect x="235" y="5" height="200" width="30" fill="#000000" id="obs3" onclick="selectCube(this.id)" stroke-width="0" stroke="#000000" transform="rotate(0,250,105)"></rect><rect x="270" y="5" height="200" width="30" fill="#000000" id="obs4" onclick="selectCube(this.id)" stroke-width="0" stroke="#000000" transform="rotate(0,285,105)"></rect><rect x="-5" y="52.5" height="30" width="200" fill="#000000" id="obs5" onclick="selectCube(this.id)" stroke-width="0" stroke="#000000" transform="rotate(0,95,67.5)"></rect><rect x="-5" y="122.5" height="30" width="200" fill="#000000" id="obs2" onclick="selectCube(this.id)" stroke-width="0" stroke="#000000" transform="rotate(0,95,137.5)"></rect><rect x="-5" y="87.5" height="30" width="200" fill="#000000" id="obs6" onclick="selectCube(this.id)" stroke-width="0" stroke="#000000" transform="rotate(0,95,102.5)"></rect></g><g id="copyPatternX25" transform="translate(460,762.5)"><rect x="200" y="5" height="200" width="30" fill="#000000" id="obs1" onclick="selectCube(this.id)" stroke-width="0" stroke="#000000" transform="rotate(0,215,105)"></rect><rect x="235" y="5" height="200" width="30" fill="#000000" id="obs3" onclick="selectCube(this.id)" stroke-width="0" stroke="#000000" transform="rotate(0,250,105)"></rect><rect x="270" y="5" height="200" width="30" fill="#000000" id="obs4" onclick="selectCube(this.id)" stroke-width="0" stroke="#000000" transform="rotate(0,285,105)"></rect><rect x="-5" y="52.5" height="30" width="200" fill="#000000" id="obs5" onclick="selectCube(this.id)" stroke-width="0" stroke="#000000" transform="rotate(0,95,67.5)"></rect><rect x="-5" y="122.5" height="30" width="200" fill="#000000" id="obs2" onclick="selectCube(this.id)" stroke-width="0" stroke="#000000" transform="rotate(0,95,137.5)"></rect><rect x="-5" y="87.5" height="30" width="200" fill="#000000" id="obs6" onclick="selectCube(this.id)" stroke-width="0" stroke="#000000" transform="rotate(0,95,102.5)"></rect></g><g id="copyPatternX35" transform="translate(765,762.5)"><rect x="200" y="5" height="200" width="30" fill="#000000" id="obs1" onclick="selectCube(this.id)" stroke-width="0" stroke="#000000" transform="rotate(0,215,105)"></rect><rect x="235" y="5" height="200" width="30" fill="#000000" id="obs3" onclick="selectCube(this.id)" stroke-width="0" stroke="#000000" transform="rotate(0,250,105)"></rect><rect x="270" y="5" height="200" width="30" fill="#000000" id="obs4" onclick="selectCube(this.id)" stroke-width="0" stroke="#000000" transform="rotate(0,285,105)"></rect><rect x="-5" y="52.5" height="30" width="200" fill="#000000" id="obs5" onclick="selectCube(this.id)" stroke-width="0" stroke="#000000" transform="rotate(0,95,67.5)"></rect><rect x="-5" y="122.5" height="30" width="200" fill="#000000" id="obs2" onclick="selectCube(this.id)" stroke-width="0" stroke="#000000" transform="rotate(0,95,137.5)"></rect><rect x="-5" y="87.5" height="30" width="200" fill="#000000" id="obs6" onclick="selectCube(this.id)" stroke-width="0" stroke="#000000" transform="rotate(0,95,102.5)"></rect></g></svg>