<svg id="fakeSVG" viewbox="0,0,1000,1000" preserveAspectRatio="xMidYMid slice" xmlns="http://www.w3.org/2000/svg" version="1.1" width="1000" height="1000">
		<g id="basicPattern"><ellipse cx="180" cy="180" ry="180" rx="180" fill="#000000" id="obs1" onclick="selectCube(this.id)" stroke-width="0" stroke="#000000" transform="rotate(0,180,180)"></ellipse><ellipse cx="180" cy="180" ry="147" rx="147" fill="#ffffff" id="obs2" onclick="selectCube(this.id)" stroke-width="0" stroke="#000000" transform="rotate(0,180,180)"></ellipse><ellipse cx="180" cy="180" ry="117" rx="117" fill="#000000" id="obs3" onclick="selectCube(this.id)" stroke-width="0" stroke="#000000" transform="rotate(0,180,180)"></ellipse><ellipse cx="180" cy="180" ry="102" rx="102" fill="#ffffff" id="obs4" onclick="selectCube(this.id)" stroke-width="0" stroke="#000000" transform="rotate(0,180,180)"></ellipse><ellipse cx="180" cy="180" ry="72" rx="72" fill="#000000" id="obs5" onclick="selectCube(this.id)" stroke-width="0" stroke="#000000" transform="rotate(0,180,180)"></ellipse><ellipse cx="180" cy="180" ry="36" rx="36" fill="#ffffff" id="obs6" onclick="selectCube(this.id)" stroke-width="0" stroke="#000000" transform="rotate(0,180,180)"></ellipse></g><g id="copyPatternX00" transform="translate(0,0)"><ellipse cx="180" cy="180" ry="180" rx="180" fill="#000000" id="obs1" onclick="selectCube(this.id)" stroke-width="0" stroke="#000000" transform="rotate(0,180,180)"></ellipse><ellipse cx="180" cy="180" ry="147" rx="147" fill="#ffffff" id="obs2" onclick="selectCube(this.id)" stroke-width="0" stroke="#000000" transform="rotate(0,180,180)"></ellipse><ellipse cx="180" cy="180" ry="117" rx="117" fill="#000000" id="obs3" onclick="selectCube(this.id)" stroke-width="0" stroke="#000000" transform="rotate(0,180,180)"></ellipse><ellipse cx="180" cy="180" ry="102" rx="102" fill="#ffffff" id="obs4" onclick="selectCube(this.id)" stroke-width="0" stroke="#000000" transform="rotate(0,180,180)"></ellipse><ellipse cx="180" cy="180" ry="72" rx="72" fill="#000000" id="obs5" onclick="selectCube(this.id)" stroke-width="0" stroke="#000000" transform="rotate(0,180,180)"></ellipse><ellipse cx="180" cy="180" ry="36" rx="36" fill="#ffffff" id="obs6" onclick="selectCube(this.id)" stroke-width="0" stroke="#000000" transform="rotate(0,180,180)"></ellipse></g><g id="copyPatternX10" transform="translate(320,0)"><ellipse cx="180" cy="180" ry="180" rx="180" fill="#000000" id="obs1" onclick="selectCube(this.id)" stroke-width="0" stroke="#000000" transform="rotate(0,180,180)"></ellipse><ellipse cx="180" cy="180" ry="147" rx="147" fill="#ffffff" id="obs2" onclick="selectCube(this.id)" stroke-width="0" stroke="#000000" transform="rotate(0,180,180)"></ellipse><ellipse cx="180" cy="180" ry="117" rx="117" fill="#000000" id="obs3" onclick="selectCube(this.id)" stroke-width="0" stroke="#000000" transform="rotate(0,180,180)"></ellipse><ellipse cx="180" cy="180" ry="102" rx="102" fill="#ffffff" id="obs4" onclick="selectCube(this.id)" stroke-width="0" stroke="#000000" transform="rotate(0,180,180)"></ellipse><ellipse cx="180" cy="180" ry="72" rx="72" fill="#000000" id="obs5" onclick="selectCube(this.id)" stroke-width="0" stroke="#000000" transform="rotate(0,180,180)"></ellipse><ellipse cx="180" cy="180" ry="36" rx="36" fill="#ffffff" id="obs6" onclick="selectCube(this.id)" stroke-width="0" stroke="#000000" transform="rotate(0,180,180)"></ellipse></g><g id="copyPatternX20" transform="translate(640,0)"><ellipse cx="180" cy="180" ry="180" rx="180" fill="#000000" id="obs1" onclick="selectCube(this.id)" stroke-width="0" stroke="#000000" transform="rotate(0,180,180)"></ellipse><ellipse cx="180" cy="180" ry="147" rx="147" fill="#ffffff" id="obs2" onclick="selectCube(this.id)" stroke-width="0" stroke="#000000" transform="rotate(0,180,180)"></ellipse><ellipse cx="180" cy="180" ry="117" rx="117" fill="#000000" id="obs3" onclick="selectCube(this.id)" stroke-width="0" stroke="#000000" transform="rotate(0,180,180)"></ellipse><ellipse cx="180" cy="180" ry="102" rx="102" fill="#ffffff" id="obs4" onclick="selectCube(this.id)" stroke-width="0" stroke="#000000" transform="rotate(0,180,180)"></ellipse><ellipse cx="180" cy="180" ry="72" rx="72" fill="#000000" id="obs5" onclick="selectCube(this.id)" stroke-width="0" stroke="#000000" transform="rotate(0,180,180)"></ellipse><ellipse cx="180" cy="180" ry="36" rx="36" fill="#ffffff" id="obs6" onclick="selectCube(this.id)" stroke-width="0" stroke="#000000" transform="rotate(0,180,180)"></ellipse></g><g id="copyPatternX30" transform="translate(960,0)"><ellipse cx="180" cy="180" ry="180" rx="180" fill="#000000" id="obs1" onclick="selectCube(this.id)" stroke-width="0" stroke="#000000" transform="rotate(0,180,180)"></ellipse><ellipse cx="180" cy="180" ry="147" rx="147" fill="#ffffff" id="obs2" onclick="selectCube(this.id)" stroke-width="0" stroke="#000000" transform="rotate(0,180,180)"></ellipse><ellipse cx="180" cy="180" ry="117" rx="117" fill="#000000" id="obs3" onclick="selectCube(this.id)" stroke-width="0" stroke="#000000" transform="rotate(0,180,180)"></ellipse><ellipse cx="180" cy="180" ry="102" rx="102" fill="#ffffff" id="obs4" onclick="selectCube(this.id)" stroke-width="0" stroke="#000000" transform="rotate(0,180,180)"></ellipse><ellipse cx="180" cy="180" ry="72" rx="72" fill="#000000" id="obs5" onclick="selectCube(this.id)" stroke-width="0" stroke="#000000" transform="rotate(0,180,180)"></ellipse><ellipse cx="180" cy="180" ry="36" rx="36" fill="#ffffff" id="obs6" onclick="selectCube(this.id)" stroke-width="0" stroke="#000000" transform="rotate(0,180,180)"></ellipse></g><g id="copyPatternX01" transform="translate(-160,180)"><ellipse cx="180" cy="180" ry="180" rx="180" fill="#000000" id="obs1" onclick="selectCube(this.id)" stroke-width="0" stroke="#000000" transform="rotate(0,180,180)"></ellipse><ellipse cx="180" cy="180" ry="147" rx="147" fill="#ffffff" id="obs2" onclick="selectCube(this.id)" stroke-width="0" stroke="#000000" transform="rotate(0,180,180)"></ellipse><ellipse cx="180" cy="180" ry="117" rx="117" fill="#000000" id="obs3" onclick="selectCube(this.id)" stroke-width="0" stroke="#000000" transform="rotate(0,180,180)"></ellipse><ellipse cx="180" cy="180" ry="102" rx="102" fill="#ffffff" id="obs4" onclick="selectCube(this.id)" stroke-width="0" stroke="#000000" transform="rotate(0,180,180)"></ellipse><ellipse cx="180" cy="180" ry="72" rx="72" fill="#000000" id="obs5" onclick="selectCube(this.id)" stroke-width="0" stroke="#000000" transform="rotate(0,180,180)"></ellipse><ellipse cx="180" cy="180" ry="36" rx="36" fill="#ffffff" id="obs6" onclick="selectCube(this.id)" stroke-width="0" stroke="#000000" transform="rotate(0,180,180)"></ellipse></g><g id="copyPatternX11" transform="translate(160,180)"><ellipse cx="180" cy="180" ry="180" rx="180" fill="#000000" id="obs1" onclick="selectCube(this.id)" stroke-width="0" stroke="#000000" transform="rotate(0,180,180)"></ellipse><ellipse cx="180" cy="180" ry="147" rx="147" fill="#ffffff" id="obs2" onclick="selectCube(this.id)" stroke-width="0" stroke="#000000" transform="rotate(0,180,180)"></ellipse><ellipse cx="180" cy="180" ry="117" rx="117" fill="#000000" id="obs3" onclick="selectCube(this.id)" stroke-width="0" stroke="#000000" transform="rotate(0,180,180)"></ellipse><ellipse cx="180" cy="180" ry="102" rx="102" fill="#ffffff" id="obs4" onclick="selectCube(this.id)" stroke-width="0" stroke="#000000" transform="rotate(0,180,180)"></ellipse><ellipse cx="180" cy="180" ry="72" rx="72" fill="#000000" id="obs5" onclick="selectCube(this.id)" stroke-width="0" stroke="#000000" transform="rotate(0,180,180)"></ellipse><ellipse cx="180" cy="180" ry="36" rx="36" fill="#ffffff" id="obs6" onclick="selectCube(this.id)" stroke-width="0" stroke="#000000" transform="rotate(0,180,180)"></ellipse></g><g id="copyPatternX21" transform="translate(480,180)"><ellipse cx="180" cy="180" ry="180" rx="180" fill="#000000" id="obs1" onclick="selectCube(this.id)" stroke-width="0" stroke="#000000" transform="rotate(0,180,180)"></ellipse><ellipse cx="180" cy="180" ry="147" rx="147" fill="#ffffff" id="obs2" onclick="selectCube(this.id)" stroke-width="0" stroke="#000000" transform="rotate(0,180,180)"></ellipse><ellipse cx="180" cy="180" ry="117" rx="117" fill="#000000" id="obs3" onclick="selectCube(this.id)" stroke-width="0" stroke="#000000" transform="rotate(0,180,180)"></ellipse><ellipse cx="180" cy="180" ry="102" rx="102" fill="#ffffff" id="obs4" onclick="selectCube(this.id)" stroke-width="0" stroke="#000000" transform="rotate(0,180,180)"></ellipse><ellipse cx="180" cy="180" ry="72" rx="72" fill="#000000" id="obs5" onclick="selectCube(this.id)" stroke-width="0" stroke="#000000" transform="rotate(0,180,180)"></ellipse><ellipse cx="180" cy="180" ry="36" rx="36" fill="#ffffff" id="obs6" onclick="selectCube(this.id)" stroke-width="0" stroke="#000000" transform="rotate(0,180,180)"></ellipse></g><g id="copyPatternX31" transform="translate(800,180)"><ellipse cx="180" cy="180" ry="180" rx="180" fill="#000000" id="obs1" onclick="selectCube(this.id)" stroke-width="0" stroke="#000000" transform="rotate(0,180,180)"></ellipse><ellipse cx="180" cy="180" ry="147" rx="147" fill="#ffffff" id="obs2" onclick="selectCube(this.id)" stroke-width="0" stroke="#000000" transform="rotate(0,180,180)"></ellipse><ellipse cx="180" cy="180" ry="117" rx="117" fill="#000000" id="obs3" onclick="selectCube(this.id)" stroke-width="0" stroke="#000000" transform="rotate(0,180,180)"></ellipse><ellipse cx="180" cy="180" ry="102" rx="102" fill="#ffffff" id="obs4" onclick="selectCube(this.id)" stroke-width="0" stroke="#000000" transform="rotate(0,180,180)"></ellipse><ellipse cx="180" cy="180" ry="72" rx="72" fill="#000000" id="obs5" onclick="selectCube(this.id)" stroke-width="0" stroke="#000000" transform="rotate(0,180,180)"></ellipse><ellipse cx="180" cy="180" ry="36" rx="36" fill="#ffffff" id="obs6" onclick="selectCube(this.id)" stroke-width="0" stroke="#000000" transform="rotate(0,180,180)"></ellipse></g><g id="copyPatternX02" transform="translate(0,360)"><ellipse cx="180" cy="180" ry="180" rx="180" fill="#000000" id="obs1" onclick="selectCube(this.id)" stroke-width="0" stroke="#000000" transform="rotate(0,180,180)"></ellipse><ellipse cx="180" cy="180" ry="147" rx="147" fill="#ffffff" id="obs2" onclick="selectCube(this.id)" stroke-width="0" stroke="#000000" transform="rotate(0,180,180)"></ellipse><ellipse cx="180" cy="180" ry="117" rx="117" fill="#000000" id="obs3" onclick="selectCube(this.id)" stroke-width="0" stroke="#000000" transform="rotate(0,180,180)"></ellipse><ellipse cx="180" cy="180" ry="102" rx="102" fill="#ffffff" id="obs4" onclick="selectCube(this.id)" stroke-width="0" stroke="#000000" transform="rotate(0,180,180)"></ellipse><ellipse cx="180" cy="180" ry="72" rx="72" fill="#000000" id="obs5" onclick="selectCube(this.id)" stroke-width="0" stroke="#000000" transform="rotate(0,180,180)"></ellipse><ellipse cx="180" cy="180" ry="36" rx="36" fill="#ffffff" id="obs6" onclick="selectCube(this.id)" stroke-width="0" stroke="#000000" transform="rotate(0,180,180)"></ellipse></g><g id="copyPatternX12" transform="translate(320,360)"><ellipse cx="180" cy="180" ry="180" rx="180" fill="#000000" id="obs1" onclick="selectCube(this.id)" stroke-width="0" stroke="#000000" transform="rotate(0,180,180)"></ellipse><ellipse cx="180" cy="180" ry="147" rx="147" fill="#ffffff" id="obs2" onclick="selectCube(this.id)" stroke-width="0" stroke="#000000" transform="rotate(0,180,180)"></ellipse><ellipse cx="180" cy="180" ry="117" rx="117" fill="#000000" id="obs3" onclick="selectCube(this.id)" stroke-width="0" stroke="#000000" transform="rotate(0,180,180)"></ellipse><ellipse cx="180" cy="180" ry="102" rx="102" fill="#ffffff" id="obs4" onclick="selectCube(this.id)" stroke-width="0" stroke="#000000" transform="rotate(0,180,180)"></ellipse><ellipse cx="180" cy="180" ry="72" rx="72" fill="#000000" id="obs5" onclick="selectCube(this.id)" stroke-width="0" stroke="#000000" transform="rotate(0,180,180)"></ellipse><ellipse cx="180" cy="180" ry="36" rx="36" fill="#ffffff" id="obs6" onclick="selectCube(this.id)" stroke-width="0" stroke="#000000" transform="rotate(0,180,180)"></ellipse></g><g id="copyPatternX22" transform="translate(640,360)"><ellipse cx="180" cy="180" ry="180" rx="180" fill="#000000" id="obs1" onclick="selectCube(this.id)" stroke-width="0" stroke="#000000" transform="rotate(0,180,180)"></ellipse><ellipse cx="180" cy="180" ry="147" rx="147" fill="#ffffff" id="obs2" onclick="selectCube(this.id)" stroke-width="0" stroke="#000000" transform="rotate(0,180,180)"></ellipse><ellipse cx="180" cy="180" ry="117" rx="117" fill="#000000" id="obs3" onclick="selectCube(this.id)" stroke-width="0" stroke="#000000" transform="rotate(0,180,180)"></ellipse><ellipse cx="180" cy="180" ry="102" rx="102" fill="#ffffff" id="obs4" onclick="selectCube(this.id)" stroke-width="0" stroke="#000000" transform="rotate(0,180,180)"></ellipse><ellipse cx="180" cy="180" ry="72" rx="72" fill="#000000" id="obs5" onclick="selectCube(this.id)" stroke-width="0" stroke="#000000" transform="rotate(0,180,180)"></ellipse><ellipse cx="180" cy="180" ry="36" rx="36" fill="#ffffff" id="obs6" onclick="selectCube(this.id)" stroke-width="0" stroke="#000000" transform="rotate(0,180,180)"></ellipse></g><g id="copyPatternX32" transform="translate(960,360)"><ellipse cx="180" cy="180" ry="180" rx="180" fill="#000000" id="obs1" onclick="selectCube(this.id)" stroke-width="0" stroke="#000000" transform="rotate(0,180,180)"></ellipse><ellipse cx="180" cy="180" ry="147" rx="147" fill="#ffffff" id="obs2" onclick="selectCube(this.id)" stroke-width="0" stroke="#000000" transform="rotate(0,180,180)"></ellipse><ellipse cx="180" cy="180" ry="117" rx="117" fill="#000000" id="obs3" onclick="selectCube(this.id)" stroke-width="0" stroke="#000000" transform="rotate(0,180,180)"></ellipse><ellipse cx="180" cy="180" ry="102" rx="102" fill="#ffffff" id="obs4" onclick="selectCube(this.id)" stroke-width="0" stroke="#000000" transform="rotate(0,180,180)"></ellipse><ellipse cx="180" cy="180" ry="72" rx="72" fill="#000000" id="obs5" onclick="selectCube(this.id)" stroke-width="0" stroke="#000000" transform="rotate(0,180,180)"></ellipse><ellipse cx="180" cy="180" ry="36" rx="36" fill="#ffffff" id="obs6" onclick="selectCube(this.id)" stroke-width="0" stroke="#000000" transform="rotate(0,180,180)"></ellipse></g><g id="copyPatternX03" transform="translate(-160,540)"><ellipse cx="180" cy="180" ry="180" rx="180" fill="#000000" id="obs1" onclick="selectCube(this.id)" stroke-width="0" stroke="#000000" transform="rotate(0,180,180)"></ellipse><ellipse cx="180" cy="180" ry="147" rx="147" fill="#ffffff" id="obs2" onclick="selectCube(this.id)" stroke-width="0" stroke="#000000" transform="rotate(0,180,180)"></ellipse><ellipse cx="180" cy="180" ry="117" rx="117" fill="#000000" id="obs3" onclick="selectCube(this.id)" stroke-width="0" stroke="#000000" transform="rotate(0,180,180)"></ellipse><ellipse cx="180" cy="180" ry="102" rx="102" fill="#ffffff" id="obs4" onclick="selectCube(this.id)" stroke-width="0" stroke="#000000" transform="rotate(0,180,180)"></ellipse><ellipse cx="180" cy="180" ry="72" rx="72" fill="#000000" id="obs5" onclick="selectCube(this.id)" stroke-width="0" stroke="#000000" transform="rotate(0,180,180)"></ellipse><ellipse cx="180" cy="180" ry="36" rx="36" fill="#ffffff" id="obs6" onclick="selectCube(this.id)" stroke-width="0" stroke="#000000" transform="rotate(0,180,180)"></ellipse></g><g id="copyPatternX13" transform="translate(160,540)"><ellipse cx="180" cy="180" ry="180" rx="180" fill="#000000" id="obs1" onclick="selectCube(this.id)" stroke-width="0" stroke="#000000" transform="rotate(0,180,180)"></ellipse><ellipse cx="180" cy="180" ry="147" rx="147" fill="#ffffff" id="obs2" onclick="selectCube(this.id)" stroke-width="0" stroke="#000000" transform="rotate(0,180,180)"></ellipse><ellipse cx="180" cy="180" ry="117" rx="117" fill="#000000" id="obs3" onclick="selectCube(this.id)" stroke-width="0" stroke="#000000" transform="rotate(0,180,180)"></ellipse><ellipse cx="180" cy="180" ry="102" rx="102" fill="#ffffff" id="obs4" onclick="selectCube(this.id)" stroke-width="0" stroke="#000000" transform="rotate(0,180,180)"></ellipse><ellipse cx="180" cy="180" ry="72" rx="72" fill="#000000" id="obs5" onclick="selectCube(this.id)" stroke-width="0" stroke="#000000" transform="rotate(0,180,180)"></ellipse><ellipse cx="180" cy="180" ry="36" rx="36" fill="#ffffff" id="obs6" onclick="selectCube(this.id)" stroke-width="0" stroke="#000000" transform="rotate(0,180,180)"></ellipse></g><g id="copyPatternX23" transform="translate(480,540)"><ellipse cx="180" cy="180" ry="180" rx="180" fill="#000000" id="obs1" onclick="selectCube(this.id)" stroke-width="0" stroke="#000000" transform="rotate(0,180,180)"></ellipse><ellipse cx="180" cy="180" ry="147" rx="147" fill="#ffffff" id="obs2" onclick="selectCube(this.id)" stroke-width="0" stroke="#000000" transform="rotate(0,180,180)"></ellipse><ellipse cx="180" cy="180" ry="117" rx="117" fill="#000000" id="obs3" onclick="selectCube(this.id)" stroke-width="0" stroke="#000000" transform="rotate(0,180,180)"></ellipse><ellipse cx="180" cy="180" ry="102" rx="102" fill="#ffffff" id="obs4" onclick="selectCube(this.id)" stroke-width="0" stroke="#000000" transform="rotate(0,180,180)"></ellipse><ellipse cx="180" cy="180" ry="72" rx="72" fill="#000000" id="obs5" onclick="selectCube(this.id)" stroke-width="0" stroke="#000000" transform="rotate(0,180,180)"></ellipse><ellipse cx="180" cy="180" ry="36" rx="36" fill="#ffffff" id="obs6" onclick="selectCube(this.id)" stroke-width="0" stroke="#000000" transform="rotate(0,180,180)"></ellipse></g><g id="copyPatternX33" transform="translate(800,540)"><ellipse cx="180" cy="180" ry="180" rx="180" fill="#000000" id="obs1" onclick="selectCube(this.id)" stroke-width="0" stroke="#000000" transform="rotate(0,180,180)"></ellipse><ellipse cx="180" cy="180" ry="147" rx="147" fill="#ffffff" id="obs2" onclick="selectCube(this.id)" stroke-width="0" stroke="#000000" transform="rotate(0,180,180)"></ellipse><ellipse cx="180" cy="180" ry="117" rx="117" fill="#000000" id="obs3" onclick="selectCube(this.id)" stroke-width="0" stroke="#000000" transform="rotate(0,180,180)"></ellipse><ellipse cx="180" cy="180" ry="102" rx="102" fill="#ffffff" id="obs4" onclick="selectCube(this.id)" stroke-width="0" stroke="#000000" transform="rotate(0,180,180)"></ellipse><ellipse cx="180" cy="180" ry="72" rx="72" fill="#000000" id="obs5" onclick="selectCube(this.id)" stroke-width="0" stroke="#000000" transform="rotate(0,180,180)"></ellipse><ellipse cx="180" cy="180" ry="36" rx="36" fill="#ffffff" id="obs6" onclick="selectCube(this.id)" stroke-width="0" stroke="#000000" transform="rotate(0,180,180)"></ellipse></g><g id="copyPatternX04" transform="translate(0,720)"><ellipse cx="180" cy="180" ry="180" rx="180" fill="#000000" id="obs1" onclick="selectCube(this.id)" stroke-width="0" stroke="#000000" transform="rotate(0,180,180)"></ellipse><ellipse cx="180" cy="180" ry="147" rx="147" fill="#ffffff" id="obs2" onclick="selectCube(this.id)" stroke-width="0" stroke="#000000" transform="rotate(0,180,180)"></ellipse><ellipse cx="180" cy="180" ry="117" rx="117" fill="#000000" id="obs3" onclick="selectCube(this.id)" stroke-width="0" stroke="#000000" transform="rotate(0,180,180)"></ellipse><ellipse cx="180" cy="180" ry="102" rx="102" fill="#ffffff" id="obs4" onclick="selectCube(this.id)" stroke-width="0" stroke="#000000" transform="rotate(0,180,180)"></ellipse><ellipse cx="180" cy="180" ry="72" rx="72" fill="#000000" id="obs5" onclick="selectCube(this.id)" stroke-width="0" stroke="#000000" transform="rotate(0,180,180)"></ellipse><ellipse cx="180" cy="180" ry="36" rx="36" fill="#ffffff" id="obs6" onclick="selectCube(this.id)" stroke-width="0" stroke="#000000" transform="rotate(0,180,180)"></ellipse></g><g id="copyPatternX14" transform="translate(320,720)"><ellipse cx="180" cy="180" ry="180" rx="180" fill="#000000" id="obs1" onclick="selectCube(this.id)" stroke-width="0" stroke="#000000" transform="rotate(0,180,180)"></ellipse><ellipse cx="180" cy="180" ry="147" rx="147" fill="#ffffff" id="obs2" onclick="selectCube(this.id)" stroke-width="0" stroke="#000000" transform="rotate(0,180,180)"></ellipse><ellipse cx="180" cy="180" ry="117" rx="117" fill="#000000" id="obs3" onclick="selectCube(this.id)" stroke-width="0" stroke="#000000" transform="rotate(0,180,180)"></ellipse><ellipse cx="180" cy="180" ry="102" rx="102" fill="#ffffff" id="obs4" onclick="selectCube(this.id)" stroke-width="0" stroke="#000000" transform="rotate(0,180,180)"></ellipse><ellipse cx="180" cy="180" ry="72" rx="72" fill="#000000" id="obs5" onclick="selectCube(this.id)" stroke-width="0" stroke="#000000" transform="rotate(0,180,180)"></ellipse><ellipse cx="180" cy="180" ry="36" rx="36" fill="#ffffff" id="obs6" onclick="selectCube(this.id)" stroke-width="0" stroke="#000000" transform="rotate(0,180,180)"></ellipse></g><g id="copyPatternX24" transform="translate(640,720)"><ellipse cx="180" cy="180" ry="180" rx="180" fill="#000000" id="obs1" onclick="selectCube(this.id)" stroke-width="0" stroke="#000000" transform="rotate(0,180,180)"></ellipse><ellipse cx="180" cy="180" ry="147" rx="147" fill="#ffffff" id="obs2" onclick="selectCube(this.id)" stroke-width="0" stroke="#000000" transform="rotate(0,180,180)"></ellipse><ellipse cx="180" cy="180" ry="117" rx="117" fill="#000000" id="obs3" onclick="selectCube(this.id)" stroke-width="0" stroke="#000000" transform="rotate(0,180,180)"></ellipse><ellipse cx="180" cy="180" ry="102" rx="102" fill="#ffffff" id="obs4" onclick="selectCube(this.id)" stroke-width="0" stroke="#000000" transform="rotate(0,180,180)"></ellipse><ellipse cx="180" cy="180" ry="72" rx="72" fill="#000000" id="obs5" onclick="selectCube(this.id)" stroke-width="0" stroke="#000000" transform="rotate(0,180,180)"></ellipse><ellipse cx="180" cy="180" ry="36" rx="36" fill="#ffffff" id="obs6" onclick="selectCube(this.id)" stroke-width="0" stroke="#000000" transform="rotate(0,180,180)"></ellipse></g><g id="copyPatternX34" transform="translate(960,720)"><ellipse cx="180" cy="180" ry="180" rx="180" fill="#000000" id="obs1" onclick="selectCube(this.id)" stroke-width="0" stroke="#000000" transform="rotate(0,180,180)"></ellipse><ellipse cx="180" cy="180" ry="147" rx="147" fill="#ffffff" id="obs2" onclick="selectCube(this.id)" stroke-width="0" stroke="#000000" transform="rotate(0,180,180)"></ellipse><ellipse cx="180" cy="180" ry="117" rx="117" fill="#000000" id="obs3" onclick="selectCube(this.id)" stroke-width="0" stroke="#000000" transform="rotate(0,180,180)"></ellipse><ellipse cx="180" cy="180" ry="102" rx="102" fill="#ffffff" id="obs4" onclick="selectCube(this.id)" stroke-width="0" stroke="#000000" transform="rotate(0,180,180)"></ellipse><ellipse cx="180" cy="180" ry="72" rx="72" fill="#000000" id="obs5" onclick="selectCube(this.id)" stroke-width="0" stroke="#000000" transform="rotate(0,180,180)"></ellipse><ellipse cx="180" cy="180" ry="36" rx="36" fill="#ffffff" id="obs6" onclick="selectCube(this.id)" stroke-width="0" stroke="#000000" transform="rotate(0,180,180)"></ellipse></g></svg>