<?xml version="1.0" encoding="iso-8859-1"?>
<!-- Generator: Adobe Illustrator 16.0.2, SVG Export Plug-In . SVG Version: 6.00 Build 0)  -->
<!DOCTYPE svg PUBLIC "-//W3C//DTD SVG 1.1//EN" "http://www.w3.org/Graphics/SVG/1.1/DTD/svg11.dtd">
<svg version="1.1" xmlns="http://www.w3.org/2000/svg" xmlns:xlink="http://www.w3.org/1999/xlink" x="0px" y="0px" width="612px"
	 height="209.092px" viewBox="0 0 612 209.092" style="enable-background:new 0 0 612 209.092;" xml:space="preserve">
<g id="&#x5716;&#x5C64;_1">
	
		<image style="overflow:visible;" width="641" height="219" xlink:href="&#x7F85;&#x5730;&#x9F9C;&#x7D0B;/&#x9676;&#x672C;&#x7F85;&#x5730;.png"  transform="matrix(0.9548 0 0 0.9548 0 0)">
	</image>
</g>
<g id="&#x5716;&#x5C64;_3">
	<polyline style="fill:#FFFFFF;" points="88.5,25.5 29.25,56.75 29.25,61.75 40.5,67.75 99.5,38.5 99.5,30.75 	"/>
</g>
<g id="&#x5716;&#x5C64;_2">
	<polyline style="fill:#D39F6E;" points="117.75,30.75 126.5,25.5 186.5,52.5 186.5,61.5 178.25,65.75 116.5,38 	"/>
	<polygon style="fill:#D39F6E;" points="186.5,79 194.5,72.5 203,79 203,134.5 194.75,139 186.5,134 	"/>
	<polygon style="fill:#D39F6E;" points="203,54 264.5,25.5 271.5,29 271.5,39.75 213,65.75 203,61 	"/>
	<path style="fill:#D39F6E;" d="M136.5-37"/>
</g>
</svg>
