<svg id="fakeSVG" viewbox="0,0,1000,1000" preserveAspectRatio="xMidYMid slice" xmlns="http://www.w3.org/2000/svg" version="1.1" width="1000" height="1000">
		<g id="basicPattern"><ellipse cx="100" cy="100" ry="100" rx="100" fill="#ffffff" id="obs1" onclick="selectCube(this.id)" stroke-width="3" stroke="#000000" transform="rotate(0,100,100)"></ellipse><ellipse cx="100" cy="100" ry="80" rx="80" fill="#000000" id="obs2" onclick="selectCube(this.id)" stroke-width="0" stroke="#000000" transform="rotate(0,100,100)"></ellipse><ellipse cx="100" cy="100" ry="60" rx="60" fill="#29a74f" id="obs3" onclick="selectCube(this.id)" stroke-width="0" stroke="#000000" transform="rotate(0,100,100)"></ellipse><ellipse cx="100" cy="100" ry="40" rx="40" fill="#a82828" id="obs4" onclick="selectCube(this.id)" stroke-width="0" stroke="#000000" transform="rotate(0,100,100)"></ellipse><ellipse cx="100" cy="100" ry="20" rx="20" fill="#a38e2e" id="obs5" onclick="selectCube(this.id)" stroke-width="0" stroke="#000000" transform="rotate(0,100,100)"></ellipse></g><g id="copyPatternX00" transform="translate(0,0)"><ellipse cx="100" cy="100" ry="100" rx="100" fill="#ffffff" id="obs1" onclick="selectCube(this.id)" stroke-width="3" stroke="#000000" transform="rotate(0,100,100)"></ellipse><ellipse cx="100" cy="100" ry="80" rx="80" fill="#000000" id="obs2" onclick="selectCube(this.id)" stroke-width="0" stroke="#000000" transform="rotate(0,100,100)"></ellipse><ellipse cx="100" cy="100" ry="60" rx="60" fill="#29a74f" id="obs3" onclick="selectCube(this.id)" stroke-width="0" stroke="#000000" transform="rotate(0,100,100)"></ellipse><ellipse cx="100" cy="100" ry="40" rx="40" fill="#a82828" id="obs4" onclick="selectCube(this.id)" stroke-width="0" stroke="#000000" transform="rotate(0,100,100)"></ellipse><ellipse cx="100" cy="100" ry="20" rx="20" fill="#a38e2e" id="obs5" onclick="selectCube(this.id)" stroke-width="0" stroke="#000000" transform="rotate(0,100,100)"></ellipse></g><g id="copyPatternX10" transform="translate(200,0)"><ellipse cx="100" cy="100" ry="100" rx="100" fill="#ffffff" id="obs1" onclick="selectCube(this.id)" stroke-width="3" stroke="#000000" transform="rotate(0,100,100)"></ellipse><ellipse cx="100" cy="100" ry="80" rx="80" fill="#000000" id="obs2" onclick="selectCube(this.id)" stroke-width="0" stroke="#000000" transform="rotate(0,100,100)"></ellipse><ellipse cx="100" cy="100" ry="60" rx="60" fill="#29a74f" id="obs3" onclick="selectCube(this.id)" stroke-width="0" stroke="#000000" transform="rotate(0,100,100)"></ellipse><ellipse cx="100" cy="100" ry="40" rx="40" fill="#a82828" id="obs4" onclick="selectCube(this.id)" stroke-width="0" stroke="#000000" transform="rotate(0,100,100)"></ellipse><ellipse cx="100" cy="100" ry="20" rx="20" fill="#a38e2e" id="obs5" onclick="selectCube(this.id)" stroke-width="0" stroke="#000000" transform="rotate(0,100,100)"></ellipse></g><g id="copyPatternX20" transform="translate(400,0)"><ellipse cx="100" cy="100" ry="100" rx="100" fill="#ffffff" id="obs1" onclick="selectCube(this.id)" stroke-width="3" stroke="#000000" transform="rotate(0,100,100)"></ellipse><ellipse cx="100" cy="100" ry="80" rx="80" fill="#000000" id="obs2" onclick="selectCube(this.id)" stroke-width="0" stroke="#000000" transform="rotate(0,100,100)"></ellipse><ellipse cx="100" cy="100" ry="60" rx="60" fill="#29a74f" id="obs3" onclick="selectCube(this.id)" stroke-width="0" stroke="#000000" transform="rotate(0,100,100)"></ellipse><ellipse cx="100" cy="100" ry="40" rx="40" fill="#a82828" id="obs4" onclick="selectCube(this.id)" stroke-width="0" stroke="#000000" transform="rotate(0,100,100)"></ellipse><ellipse cx="100" cy="100" ry="20" rx="20" fill="#a38e2e" id="obs5" onclick="selectCube(this.id)" stroke-width="0" stroke="#000000" transform="rotate(0,100,100)"></ellipse></g><g id="copyPatternX30" transform="translate(600,0)"><ellipse cx="100" cy="100" ry="100" rx="100" fill="#ffffff" id="obs1" onclick="selectCube(this.id)" stroke-width="3" stroke="#000000" transform="rotate(0,100,100)"></ellipse><ellipse cx="100" cy="100" ry="80" rx="80" fill="#000000" id="obs2" onclick="selectCube(this.id)" stroke-width="0" stroke="#000000" transform="rotate(0,100,100)"></ellipse><ellipse cx="100" cy="100" ry="60" rx="60" fill="#29a74f" id="obs3" onclick="selectCube(this.id)" stroke-width="0" stroke="#000000" transform="rotate(0,100,100)"></ellipse><ellipse cx="100" cy="100" ry="40" rx="40" fill="#a82828" id="obs4" onclick="selectCube(this.id)" stroke-width="0" stroke="#000000" transform="rotate(0,100,100)"></ellipse><ellipse cx="100" cy="100" ry="20" rx="20" fill="#a38e2e" id="obs5" onclick="selectCube(this.id)" stroke-width="0" stroke="#000000" transform="rotate(0,100,100)"></ellipse></g><g id="copyPatternX40" transform="translate(800,0)"><ellipse cx="100" cy="100" ry="100" rx="100" fill="#ffffff" id="obs1" onclick="selectCube(this.id)" stroke-width="3" stroke="#000000" transform="rotate(0,100,100)"></ellipse><ellipse cx="100" cy="100" ry="80" rx="80" fill="#000000" id="obs2" onclick="selectCube(this.id)" stroke-width="0" stroke="#000000" transform="rotate(0,100,100)"></ellipse><ellipse cx="100" cy="100" ry="60" rx="60" fill="#29a74f" id="obs3" onclick="selectCube(this.id)" stroke-width="0" stroke="#000000" transform="rotate(0,100,100)"></ellipse><ellipse cx="100" cy="100" ry="40" rx="40" fill="#a82828" id="obs4" onclick="selectCube(this.id)" stroke-width="0" stroke="#000000" transform="rotate(0,100,100)"></ellipse><ellipse cx="100" cy="100" ry="20" rx="20" fill="#a38e2e" id="obs5" onclick="selectCube(this.id)" stroke-width="0" stroke="#000000" transform="rotate(0,100,100)"></ellipse></g><g id="copyPatternX01" transform="translate(-100,100)"><ellipse cx="100" cy="100" ry="100" rx="100" fill="#ffffff" id="obs1" onclick="selectCube(this.id)" stroke-width="3" stroke="#000000" transform="rotate(0,100,100)"></ellipse><ellipse cx="100" cy="100" ry="80" rx="80" fill="#000000" id="obs2" onclick="selectCube(this.id)" stroke-width="0" stroke="#000000" transform="rotate(0,100,100)"></ellipse><ellipse cx="100" cy="100" ry="60" rx="60" fill="#29a74f" id="obs3" onclick="selectCube(this.id)" stroke-width="0" stroke="#000000" transform="rotate(0,100,100)"></ellipse><ellipse cx="100" cy="100" ry="40" rx="40" fill="#a82828" id="obs4" onclick="selectCube(this.id)" stroke-width="0" stroke="#000000" transform="rotate(0,100,100)"></ellipse><ellipse cx="100" cy="100" ry="20" rx="20" fill="#a38e2e" id="obs5" onclick="selectCube(this.id)" stroke-width="0" stroke="#000000" transform="rotate(0,100,100)"></ellipse></g><g id="copyPatternX11" transform="translate(100,100)"><ellipse cx="100" cy="100" ry="100" rx="100" fill="#ffffff" id="obs1" onclick="selectCube(this.id)" stroke-width="3" stroke="#000000" transform="rotate(0,100,100)"></ellipse><ellipse cx="100" cy="100" ry="80" rx="80" fill="#000000" id="obs2" onclick="selectCube(this.id)" stroke-width="0" stroke="#000000" transform="rotate(0,100,100)"></ellipse><ellipse cx="100" cy="100" ry="60" rx="60" fill="#29a74f" id="obs3" onclick="selectCube(this.id)" stroke-width="0" stroke="#000000" transform="rotate(0,100,100)"></ellipse><ellipse cx="100" cy="100" ry="40" rx="40" fill="#a82828" id="obs4" onclick="selectCube(this.id)" stroke-width="0" stroke="#000000" transform="rotate(0,100,100)"></ellipse><ellipse cx="100" cy="100" ry="20" rx="20" fill="#a38e2e" id="obs5" onclick="selectCube(this.id)" stroke-width="0" stroke="#000000" transform="rotate(0,100,100)"></ellipse></g><g id="copyPatternX21" transform="translate(300,100)"><ellipse cx="100" cy="100" ry="100" rx="100" fill="#ffffff" id="obs1" onclick="selectCube(this.id)" stroke-width="3" stroke="#000000" transform="rotate(0,100,100)"></ellipse><ellipse cx="100" cy="100" ry="80" rx="80" fill="#000000" id="obs2" onclick="selectCube(this.id)" stroke-width="0" stroke="#000000" transform="rotate(0,100,100)"></ellipse><ellipse cx="100" cy="100" ry="60" rx="60" fill="#29a74f" id="obs3" onclick="selectCube(this.id)" stroke-width="0" stroke="#000000" transform="rotate(0,100,100)"></ellipse><ellipse cx="100" cy="100" ry="40" rx="40" fill="#a82828" id="obs4" onclick="selectCube(this.id)" stroke-width="0" stroke="#000000" transform="rotate(0,100,100)"></ellipse><ellipse cx="100" cy="100" ry="20" rx="20" fill="#a38e2e" id="obs5" onclick="selectCube(this.id)" stroke-width="0" stroke="#000000" transform="rotate(0,100,100)"></ellipse></g><g id="copyPatternX31" transform="translate(500,100)"><ellipse cx="100" cy="100" ry="100" rx="100" fill="#ffffff" id="obs1" onclick="selectCube(this.id)" stroke-width="3" stroke="#000000" transform="rotate(0,100,100)"></ellipse><ellipse cx="100" cy="100" ry="80" rx="80" fill="#000000" id="obs2" onclick="selectCube(this.id)" stroke-width="0" stroke="#000000" transform="rotate(0,100,100)"></ellipse><ellipse cx="100" cy="100" ry="60" rx="60" fill="#29a74f" id="obs3" onclick="selectCube(this.id)" stroke-width="0" stroke="#000000" transform="rotate(0,100,100)"></ellipse><ellipse cx="100" cy="100" ry="40" rx="40" fill="#a82828" id="obs4" onclick="selectCube(this.id)" stroke-width="0" stroke="#000000" transform="rotate(0,100,100)"></ellipse><ellipse cx="100" cy="100" ry="20" rx="20" fill="#a38e2e" id="obs5" onclick="selectCube(this.id)" stroke-width="0" stroke="#000000" transform="rotate(0,100,100)"></ellipse></g><g id="copyPatternX41" transform="translate(700,100)"><ellipse cx="100" cy="100" ry="100" rx="100" fill="#ffffff" id="obs1" onclick="selectCube(this.id)" stroke-width="3" stroke="#000000" transform="rotate(0,100,100)"></ellipse><ellipse cx="100" cy="100" ry="80" rx="80" fill="#000000" id="obs2" onclick="selectCube(this.id)" stroke-width="0" stroke="#000000" transform="rotate(0,100,100)"></ellipse><ellipse cx="100" cy="100" ry="60" rx="60" fill="#29a74f" id="obs3" onclick="selectCube(this.id)" stroke-width="0" stroke="#000000" transform="rotate(0,100,100)"></ellipse><ellipse cx="100" cy="100" ry="40" rx="40" fill="#a82828" id="obs4" onclick="selectCube(this.id)" stroke-width="0" stroke="#000000" transform="rotate(0,100,100)"></ellipse><ellipse cx="100" cy="100" ry="20" rx="20" fill="#a38e2e" id="obs5" onclick="selectCube(this.id)" stroke-width="0" stroke="#000000" transform="rotate(0,100,100)"></ellipse></g><g id="copyPatternX02" transform="translate(0,200)"><ellipse cx="100" cy="100" ry="100" rx="100" fill="#ffffff" id="obs1" onclick="selectCube(this.id)" stroke-width="3" stroke="#000000" transform="rotate(0,100,100)"></ellipse><ellipse cx="100" cy="100" ry="80" rx="80" fill="#000000" id="obs2" onclick="selectCube(this.id)" stroke-width="0" stroke="#000000" transform="rotate(0,100,100)"></ellipse><ellipse cx="100" cy="100" ry="60" rx="60" fill="#29a74f" id="obs3" onclick="selectCube(this.id)" stroke-width="0" stroke="#000000" transform="rotate(0,100,100)"></ellipse><ellipse cx="100" cy="100" ry="40" rx="40" fill="#a82828" id="obs4" onclick="selectCube(this.id)" stroke-width="0" stroke="#000000" transform="rotate(0,100,100)"></ellipse><ellipse cx="100" cy="100" ry="20" rx="20" fill="#a38e2e" id="obs5" onclick="selectCube(this.id)" stroke-width="0" stroke="#000000" transform="rotate(0,100,100)"></ellipse></g><g id="copyPatternX12" transform="translate(200,200)"><ellipse cx="100" cy="100" ry="100" rx="100" fill="#ffffff" id="obs1" onclick="selectCube(this.id)" stroke-width="3" stroke="#000000" transform="rotate(0,100,100)"></ellipse><ellipse cx="100" cy="100" ry="80" rx="80" fill="#000000" id="obs2" onclick="selectCube(this.id)" stroke-width="0" stroke="#000000" transform="rotate(0,100,100)"></ellipse><ellipse cx="100" cy="100" ry="60" rx="60" fill="#29a74f" id="obs3" onclick="selectCube(this.id)" stroke-width="0" stroke="#000000" transform="rotate(0,100,100)"></ellipse><ellipse cx="100" cy="100" ry="40" rx="40" fill="#a82828" id="obs4" onclick="selectCube(this.id)" stroke-width="0" stroke="#000000" transform="rotate(0,100,100)"></ellipse><ellipse cx="100" cy="100" ry="20" rx="20" fill="#a38e2e" id="obs5" onclick="selectCube(this.id)" stroke-width="0" stroke="#000000" transform="rotate(0,100,100)"></ellipse></g><g id="copyPatternX22" transform="translate(400,200)"><ellipse cx="100" cy="100" ry="100" rx="100" fill="#ffffff" id="obs1" onclick="selectCube(this.id)" stroke-width="3" stroke="#000000" transform="rotate(0,100,100)"></ellipse><ellipse cx="100" cy="100" ry="80" rx="80" fill="#000000" id="obs2" onclick="selectCube(this.id)" stroke-width="0" stroke="#000000" transform="rotate(0,100,100)"></ellipse><ellipse cx="100" cy="100" ry="60" rx="60" fill="#29a74f" id="obs3" onclick="selectCube(this.id)" stroke-width="0" stroke="#000000" transform="rotate(0,100,100)"></ellipse><ellipse cx="100" cy="100" ry="40" rx="40" fill="#a82828" id="obs4" onclick="selectCube(this.id)" stroke-width="0" stroke="#000000" transform="rotate(0,100,100)"></ellipse><ellipse cx="100" cy="100" ry="20" rx="20" fill="#a38e2e" id="obs5" onclick="selectCube(this.id)" stroke-width="0" stroke="#000000" transform="rotate(0,100,100)"></ellipse></g><g id="copyPatternX32" transform="translate(600,200)"><ellipse cx="100" cy="100" ry="100" rx="100" fill="#ffffff" id="obs1" onclick="selectCube(this.id)" stroke-width="3" stroke="#000000" transform="rotate(0,100,100)"></ellipse><ellipse cx="100" cy="100" ry="80" rx="80" fill="#000000" id="obs2" onclick="selectCube(this.id)" stroke-width="0" stroke="#000000" transform="rotate(0,100,100)"></ellipse><ellipse cx="100" cy="100" ry="60" rx="60" fill="#29a74f" id="obs3" onclick="selectCube(this.id)" stroke-width="0" stroke="#000000" transform="rotate(0,100,100)"></ellipse><ellipse cx="100" cy="100" ry="40" rx="40" fill="#a82828" id="obs4" onclick="selectCube(this.id)" stroke-width="0" stroke="#000000" transform="rotate(0,100,100)"></ellipse><ellipse cx="100" cy="100" ry="20" rx="20" fill="#a38e2e" id="obs5" onclick="selectCube(this.id)" stroke-width="0" stroke="#000000" transform="rotate(0,100,100)"></ellipse></g><g id="copyPatternX42" transform="translate(800,200)"><ellipse cx="100" cy="100" ry="100" rx="100" fill="#ffffff" id="obs1" onclick="selectCube(this.id)" stroke-width="3" stroke="#000000" transform="rotate(0,100,100)"></ellipse><ellipse cx="100" cy="100" ry="80" rx="80" fill="#000000" id="obs2" onclick="selectCube(this.id)" stroke-width="0" stroke="#000000" transform="rotate(0,100,100)"></ellipse><ellipse cx="100" cy="100" ry="60" rx="60" fill="#29a74f" id="obs3" onclick="selectCube(this.id)" stroke-width="0" stroke="#000000" transform="rotate(0,100,100)"></ellipse><ellipse cx="100" cy="100" ry="40" rx="40" fill="#a82828" id="obs4" onclick="selectCube(this.id)" stroke-width="0" stroke="#000000" transform="rotate(0,100,100)"></ellipse><ellipse cx="100" cy="100" ry="20" rx="20" fill="#a38e2e" id="obs5" onclick="selectCube(this.id)" stroke-width="0" stroke="#000000" transform="rotate(0,100,100)"></ellipse></g><g id="copyPatternX03" transform="translate(-100,300)"><ellipse cx="100" cy="100" ry="100" rx="100" fill="#ffffff" id="obs1" onclick="selectCube(this.id)" stroke-width="3" stroke="#000000" transform="rotate(0,100,100)"></ellipse><ellipse cx="100" cy="100" ry="80" rx="80" fill="#000000" id="obs2" onclick="selectCube(this.id)" stroke-width="0" stroke="#000000" transform="rotate(0,100,100)"></ellipse><ellipse cx="100" cy="100" ry="60" rx="60" fill="#29a74f" id="obs3" onclick="selectCube(this.id)" stroke-width="0" stroke="#000000" transform="rotate(0,100,100)"></ellipse><ellipse cx="100" cy="100" ry="40" rx="40" fill="#a82828" id="obs4" onclick="selectCube(this.id)" stroke-width="0" stroke="#000000" transform="rotate(0,100,100)"></ellipse><ellipse cx="100" cy="100" ry="20" rx="20" fill="#a38e2e" id="obs5" onclick="selectCube(this.id)" stroke-width="0" stroke="#000000" transform="rotate(0,100,100)"></ellipse></g><g id="copyPatternX13" transform="translate(100,300)"><ellipse cx="100" cy="100" ry="100" rx="100" fill="#ffffff" id="obs1" onclick="selectCube(this.id)" stroke-width="3" stroke="#000000" transform="rotate(0,100,100)"></ellipse><ellipse cx="100" cy="100" ry="80" rx="80" fill="#000000" id="obs2" onclick="selectCube(this.id)" stroke-width="0" stroke="#000000" transform="rotate(0,100,100)"></ellipse><ellipse cx="100" cy="100" ry="60" rx="60" fill="#29a74f" id="obs3" onclick="selectCube(this.id)" stroke-width="0" stroke="#000000" transform="rotate(0,100,100)"></ellipse><ellipse cx="100" cy="100" ry="40" rx="40" fill="#a82828" id="obs4" onclick="selectCube(this.id)" stroke-width="0" stroke="#000000" transform="rotate(0,100,100)"></ellipse><ellipse cx="100" cy="100" ry="20" rx="20" fill="#a38e2e" id="obs5" onclick="selectCube(this.id)" stroke-width="0" stroke="#000000" transform="rotate(0,100,100)"></ellipse></g><g id="copyPatternX23" transform="translate(300,300)"><ellipse cx="100" cy="100" ry="100" rx="100" fill="#ffffff" id="obs1" onclick="selectCube(this.id)" stroke-width="3" stroke="#000000" transform="rotate(0,100,100)"></ellipse><ellipse cx="100" cy="100" ry="80" rx="80" fill="#000000" id="obs2" onclick="selectCube(this.id)" stroke-width="0" stroke="#000000" transform="rotate(0,100,100)"></ellipse><ellipse cx="100" cy="100" ry="60" rx="60" fill="#29a74f" id="obs3" onclick="selectCube(this.id)" stroke-width="0" stroke="#000000" transform="rotate(0,100,100)"></ellipse><ellipse cx="100" cy="100" ry="40" rx="40" fill="#a82828" id="obs4" onclick="selectCube(this.id)" stroke-width="0" stroke="#000000" transform="rotate(0,100,100)"></ellipse><ellipse cx="100" cy="100" ry="20" rx="20" fill="#a38e2e" id="obs5" onclick="selectCube(this.id)" stroke-width="0" stroke="#000000" transform="rotate(0,100,100)"></ellipse></g><g id="copyPatternX33" transform="translate(500,300)"><ellipse cx="100" cy="100" ry="100" rx="100" fill="#ffffff" id="obs1" onclick="selectCube(this.id)" stroke-width="3" stroke="#000000" transform="rotate(0,100,100)"></ellipse><ellipse cx="100" cy="100" ry="80" rx="80" fill="#000000" id="obs2" onclick="selectCube(this.id)" stroke-width="0" stroke="#000000" transform="rotate(0,100,100)"></ellipse><ellipse cx="100" cy="100" ry="60" rx="60" fill="#29a74f" id="obs3" onclick="selectCube(this.id)" stroke-width="0" stroke="#000000" transform="rotate(0,100,100)"></ellipse><ellipse cx="100" cy="100" ry="40" rx="40" fill="#a82828" id="obs4" onclick="selectCube(this.id)" stroke-width="0" stroke="#000000" transform="rotate(0,100,100)"></ellipse><ellipse cx="100" cy="100" ry="20" rx="20" fill="#a38e2e" id="obs5" onclick="selectCube(this.id)" stroke-width="0" stroke="#000000" transform="rotate(0,100,100)"></ellipse></g><g id="copyPatternX43" transform="translate(700,300)"><ellipse cx="100" cy="100" ry="100" rx="100" fill="#ffffff" id="obs1" onclick="selectCube(this.id)" stroke-width="3" stroke="#000000" transform="rotate(0,100,100)"></ellipse><ellipse cx="100" cy="100" ry="80" rx="80" fill="#000000" id="obs2" onclick="selectCube(this.id)" stroke-width="0" stroke="#000000" transform="rotate(0,100,100)"></ellipse><ellipse cx="100" cy="100" ry="60" rx="60" fill="#29a74f" id="obs3" onclick="selectCube(this.id)" stroke-width="0" stroke="#000000" transform="rotate(0,100,100)"></ellipse><ellipse cx="100" cy="100" ry="40" rx="40" fill="#a82828" id="obs4" onclick="selectCube(this.id)" stroke-width="0" stroke="#000000" transform="rotate(0,100,100)"></ellipse><ellipse cx="100" cy="100" ry="20" rx="20" fill="#a38e2e" id="obs5" onclick="selectCube(this.id)" stroke-width="0" stroke="#000000" transform="rotate(0,100,100)"></ellipse></g><g id="copyPatternX04" transform="translate(0,400)"><ellipse cx="100" cy="100" ry="100" rx="100" fill="#ffffff" id="obs1" onclick="selectCube(this.id)" stroke-width="3" stroke="#000000" transform="rotate(0,100,100)"></ellipse><ellipse cx="100" cy="100" ry="80" rx="80" fill="#000000" id="obs2" onclick="selectCube(this.id)" stroke-width="0" stroke="#000000" transform="rotate(0,100,100)"></ellipse><ellipse cx="100" cy="100" ry="60" rx="60" fill="#29a74f" id="obs3" onclick="selectCube(this.id)" stroke-width="0" stroke="#000000" transform="rotate(0,100,100)"></ellipse><ellipse cx="100" cy="100" ry="40" rx="40" fill="#a82828" id="obs4" onclick="selectCube(this.id)" stroke-width="0" stroke="#000000" transform="rotate(0,100,100)"></ellipse><ellipse cx="100" cy="100" ry="20" rx="20" fill="#a38e2e" id="obs5" onclick="selectCube(this.id)" stroke-width="0" stroke="#000000" transform="rotate(0,100,100)"></ellipse></g><g id="copyPatternX14" transform="translate(200,400)"><ellipse cx="100" cy="100" ry="100" rx="100" fill="#ffffff" id="obs1" onclick="selectCube(this.id)" stroke-width="3" stroke="#000000" transform="rotate(0,100,100)"></ellipse><ellipse cx="100" cy="100" ry="80" rx="80" fill="#000000" id="obs2" onclick="selectCube(this.id)" stroke-width="0" stroke="#000000" transform="rotate(0,100,100)"></ellipse><ellipse cx="100" cy="100" ry="60" rx="60" fill="#29a74f" id="obs3" onclick="selectCube(this.id)" stroke-width="0" stroke="#000000" transform="rotate(0,100,100)"></ellipse><ellipse cx="100" cy="100" ry="40" rx="40" fill="#a82828" id="obs4" onclick="selectCube(this.id)" stroke-width="0" stroke="#000000" transform="rotate(0,100,100)"></ellipse><ellipse cx="100" cy="100" ry="20" rx="20" fill="#a38e2e" id="obs5" onclick="selectCube(this.id)" stroke-width="0" stroke="#000000" transform="rotate(0,100,100)"></ellipse></g><g id="copyPatternX24" transform="translate(400,400)"><ellipse cx="100" cy="100" ry="100" rx="100" fill="#ffffff" id="obs1" onclick="selectCube(this.id)" stroke-width="3" stroke="#000000" transform="rotate(0,100,100)"></ellipse><ellipse cx="100" cy="100" ry="80" rx="80" fill="#000000" id="obs2" onclick="selectCube(this.id)" stroke-width="0" stroke="#000000" transform="rotate(0,100,100)"></ellipse><ellipse cx="100" cy="100" ry="60" rx="60" fill="#29a74f" id="obs3" onclick="selectCube(this.id)" stroke-width="0" stroke="#000000" transform="rotate(0,100,100)"></ellipse><ellipse cx="100" cy="100" ry="40" rx="40" fill="#a82828" id="obs4" onclick="selectCube(this.id)" stroke-width="0" stroke="#000000" transform="rotate(0,100,100)"></ellipse><ellipse cx="100" cy="100" ry="20" rx="20" fill="#a38e2e" id="obs5" onclick="selectCube(this.id)" stroke-width="0" stroke="#000000" transform="rotate(0,100,100)"></ellipse></g><g id="copyPatternX34" transform="translate(600,400)"><ellipse cx="100" cy="100" ry="100" rx="100" fill="#ffffff" id="obs1" onclick="selectCube(this.id)" stroke-width="3" stroke="#000000" transform="rotate(0,100,100)"></ellipse><ellipse cx="100" cy="100" ry="80" rx="80" fill="#000000" id="obs2" onclick="selectCube(this.id)" stroke-width="0" stroke="#000000" transform="rotate(0,100,100)"></ellipse><ellipse cx="100" cy="100" ry="60" rx="60" fill="#29a74f" id="obs3" onclick="selectCube(this.id)" stroke-width="0" stroke="#000000" transform="rotate(0,100,100)"></ellipse><ellipse cx="100" cy="100" ry="40" rx="40" fill="#a82828" id="obs4" onclick="selectCube(this.id)" stroke-width="0" stroke="#000000" transform="rotate(0,100,100)"></ellipse><ellipse cx="100" cy="100" ry="20" rx="20" fill="#a38e2e" id="obs5" onclick="selectCube(this.id)" stroke-width="0" stroke="#000000" transform="rotate(0,100,100)"></ellipse></g><g id="copyPatternX44" transform="translate(800,400)"><ellipse cx="100" cy="100" ry="100" rx="100" fill="#ffffff" id="obs1" onclick="selectCube(this.id)" stroke-width="3" stroke="#000000" transform="rotate(0,100,100)"></ellipse><ellipse cx="100" cy="100" ry="80" rx="80" fill="#000000" id="obs2" onclick="selectCube(this.id)" stroke-width="0" stroke="#000000" transform="rotate(0,100,100)"></ellipse><ellipse cx="100" cy="100" ry="60" rx="60" fill="#29a74f" id="obs3" onclick="selectCube(this.id)" stroke-width="0" stroke="#000000" transform="rotate(0,100,100)"></ellipse><ellipse cx="100" cy="100" ry="40" rx="40" fill="#a82828" id="obs4" onclick="selectCube(this.id)" stroke-width="0" stroke="#000000" transform="rotate(0,100,100)"></ellipse><ellipse cx="100" cy="100" ry="20" rx="20" fill="#a38e2e" id="obs5" onclick="selectCube(this.id)" stroke-width="0" stroke="#000000" transform="rotate(0,100,100)"></ellipse></g><g id="copyPatternX05" transform="translate(-100,500)"><ellipse cx="100" cy="100" ry="100" rx="100" fill="#ffffff" id="obs1" onclick="selectCube(this.id)" stroke-width="3" stroke="#000000" transform="rotate(0,100,100)"></ellipse><ellipse cx="100" cy="100" ry="80" rx="80" fill="#000000" id="obs2" onclick="selectCube(this.id)" stroke-width="0" stroke="#000000" transform="rotate(0,100,100)"></ellipse><ellipse cx="100" cy="100" ry="60" rx="60" fill="#29a74f" id="obs3" onclick="selectCube(this.id)" stroke-width="0" stroke="#000000" transform="rotate(0,100,100)"></ellipse><ellipse cx="100" cy="100" ry="40" rx="40" fill="#a82828" id="obs4" onclick="selectCube(this.id)" stroke-width="0" stroke="#000000" transform="rotate(0,100,100)"></ellipse><ellipse cx="100" cy="100" ry="20" rx="20" fill="#a38e2e" id="obs5" onclick="selectCube(this.id)" stroke-width="0" stroke="#000000" transform="rotate(0,100,100)"></ellipse></g><g id="copyPatternX15" transform="translate(100,500)"><ellipse cx="100" cy="100" ry="100" rx="100" fill="#ffffff" id="obs1" onclick="selectCube(this.id)" stroke-width="3" stroke="#000000" transform="rotate(0,100,100)"></ellipse><ellipse cx="100" cy="100" ry="80" rx="80" fill="#000000" id="obs2" onclick="selectCube(this.id)" stroke-width="0" stroke="#000000" transform="rotate(0,100,100)"></ellipse><ellipse cx="100" cy="100" ry="60" rx="60" fill="#29a74f" id="obs3" onclick="selectCube(this.id)" stroke-width="0" stroke="#000000" transform="rotate(0,100,100)"></ellipse><ellipse cx="100" cy="100" ry="40" rx="40" fill="#a82828" id="obs4" onclick="selectCube(this.id)" stroke-width="0" stroke="#000000" transform="rotate(0,100,100)"></ellipse><ellipse cx="100" cy="100" ry="20" rx="20" fill="#a38e2e" id="obs5" onclick="selectCube(this.id)" stroke-width="0" stroke="#000000" transform="rotate(0,100,100)"></ellipse></g><g id="copyPatternX25" transform="translate(300,500)"><ellipse cx="100" cy="100" ry="100" rx="100" fill="#ffffff" id="obs1" onclick="selectCube(this.id)" stroke-width="3" stroke="#000000" transform="rotate(0,100,100)"></ellipse><ellipse cx="100" cy="100" ry="80" rx="80" fill="#000000" id="obs2" onclick="selectCube(this.id)" stroke-width="0" stroke="#000000" transform="rotate(0,100,100)"></ellipse><ellipse cx="100" cy="100" ry="60" rx="60" fill="#29a74f" id="obs3" onclick="selectCube(this.id)" stroke-width="0" stroke="#000000" transform="rotate(0,100,100)"></ellipse><ellipse cx="100" cy="100" ry="40" rx="40" fill="#a82828" id="obs4" onclick="selectCube(this.id)" stroke-width="0" stroke="#000000" transform="rotate(0,100,100)"></ellipse><ellipse cx="100" cy="100" ry="20" rx="20" fill="#a38e2e" id="obs5" onclick="selectCube(this.id)" stroke-width="0" stroke="#000000" transform="rotate(0,100,100)"></ellipse></g><g id="copyPatternX35" transform="translate(500,500)"><ellipse cx="100" cy="100" ry="100" rx="100" fill="#ffffff" id="obs1" onclick="selectCube(this.id)" stroke-width="3" stroke="#000000" transform="rotate(0,100,100)"></ellipse><ellipse cx="100" cy="100" ry="80" rx="80" fill="#000000" id="obs2" onclick="selectCube(this.id)" stroke-width="0" stroke="#000000" transform="rotate(0,100,100)"></ellipse><ellipse cx="100" cy="100" ry="60" rx="60" fill="#29a74f" id="obs3" onclick="selectCube(this.id)" stroke-width="0" stroke="#000000" transform="rotate(0,100,100)"></ellipse><ellipse cx="100" cy="100" ry="40" rx="40" fill="#a82828" id="obs4" onclick="selectCube(this.id)" stroke-width="0" stroke="#000000" transform="rotate(0,100,100)"></ellipse><ellipse cx="100" cy="100" ry="20" rx="20" fill="#a38e2e" id="obs5" onclick="selectCube(this.id)" stroke-width="0" stroke="#000000" transform="rotate(0,100,100)"></ellipse></g><g id="copyPatternX45" transform="translate(700,500)"><ellipse cx="100" cy="100" ry="100" rx="100" fill="#ffffff" id="obs1" onclick="selectCube(this.id)" stroke-width="3" stroke="#000000" transform="rotate(0,100,100)"></ellipse><ellipse cx="100" cy="100" ry="80" rx="80" fill="#000000" id="obs2" onclick="selectCube(this.id)" stroke-width="0" stroke="#000000" transform="rotate(0,100,100)"></ellipse><ellipse cx="100" cy="100" ry="60" rx="60" fill="#29a74f" id="obs3" onclick="selectCube(this.id)" stroke-width="0" stroke="#000000" transform="rotate(0,100,100)"></ellipse><ellipse cx="100" cy="100" ry="40" rx="40" fill="#a82828" id="obs4" onclick="selectCube(this.id)" stroke-width="0" stroke="#000000" transform="rotate(0,100,100)"></ellipse><ellipse cx="100" cy="100" ry="20" rx="20" fill="#a38e2e" id="obs5" onclick="selectCube(this.id)" stroke-width="0" stroke="#000000" transform="rotate(0,100,100)"></ellipse></g><g id="copyPatternX06" transform="translate(0,600)"><ellipse cx="100" cy="100" ry="100" rx="100" fill="#ffffff" id="obs1" onclick="selectCube(this.id)" stroke-width="3" stroke="#000000" transform="rotate(0,100,100)"></ellipse><ellipse cx="100" cy="100" ry="80" rx="80" fill="#000000" id="obs2" onclick="selectCube(this.id)" stroke-width="0" stroke="#000000" transform="rotate(0,100,100)"></ellipse><ellipse cx="100" cy="100" ry="60" rx="60" fill="#29a74f" id="obs3" onclick="selectCube(this.id)" stroke-width="0" stroke="#000000" transform="rotate(0,100,100)"></ellipse><ellipse cx="100" cy="100" ry="40" rx="40" fill="#a82828" id="obs4" onclick="selectCube(this.id)" stroke-width="0" stroke="#000000" transform="rotate(0,100,100)"></ellipse><ellipse cx="100" cy="100" ry="20" rx="20" fill="#a38e2e" id="obs5" onclick="selectCube(this.id)" stroke-width="0" stroke="#000000" transform="rotate(0,100,100)"></ellipse></g><g id="copyPatternX16" transform="translate(200,600)"><ellipse cx="100" cy="100" ry="100" rx="100" fill="#ffffff" id="obs1" onclick="selectCube(this.id)" stroke-width="3" stroke="#000000" transform="rotate(0,100,100)"></ellipse><ellipse cx="100" cy="100" ry="80" rx="80" fill="#000000" id="obs2" onclick="selectCube(this.id)" stroke-width="0" stroke="#000000" transform="rotate(0,100,100)"></ellipse><ellipse cx="100" cy="100" ry="60" rx="60" fill="#29a74f" id="obs3" onclick="selectCube(this.id)" stroke-width="0" stroke="#000000" transform="rotate(0,100,100)"></ellipse><ellipse cx="100" cy="100" ry="40" rx="40" fill="#a82828" id="obs4" onclick="selectCube(this.id)" stroke-width="0" stroke="#000000" transform="rotate(0,100,100)"></ellipse><ellipse cx="100" cy="100" ry="20" rx="20" fill="#a38e2e" id="obs5" onclick="selectCube(this.id)" stroke-width="0" stroke="#000000" transform="rotate(0,100,100)"></ellipse></g><g id="copyPatternX26" transform="translate(400,600)"><ellipse cx="100" cy="100" ry="100" rx="100" fill="#ffffff" id="obs1" onclick="selectCube(this.id)" stroke-width="3" stroke="#000000" transform="rotate(0,100,100)"></ellipse><ellipse cx="100" cy="100" ry="80" rx="80" fill="#000000" id="obs2" onclick="selectCube(this.id)" stroke-width="0" stroke="#000000" transform="rotate(0,100,100)"></ellipse><ellipse cx="100" cy="100" ry="60" rx="60" fill="#29a74f" id="obs3" onclick="selectCube(this.id)" stroke-width="0" stroke="#000000" transform="rotate(0,100,100)"></ellipse><ellipse cx="100" cy="100" ry="40" rx="40" fill="#a82828" id="obs4" onclick="selectCube(this.id)" stroke-width="0" stroke="#000000" transform="rotate(0,100,100)"></ellipse><ellipse cx="100" cy="100" ry="20" rx="20" fill="#a38e2e" id="obs5" onclick="selectCube(this.id)" stroke-width="0" stroke="#000000" transform="rotate(0,100,100)"></ellipse></g><g id="copyPatternX36" transform="translate(600,600)"><ellipse cx="100" cy="100" ry="100" rx="100" fill="#ffffff" id="obs1" onclick="selectCube(this.id)" stroke-width="3" stroke="#000000" transform="rotate(0,100,100)"></ellipse><ellipse cx="100" cy="100" ry="80" rx="80" fill="#000000" id="obs2" onclick="selectCube(this.id)" stroke-width="0" stroke="#000000" transform="rotate(0,100,100)"></ellipse><ellipse cx="100" cy="100" ry="60" rx="60" fill="#29a74f" id="obs3" onclick="selectCube(this.id)" stroke-width="0" stroke="#000000" transform="rotate(0,100,100)"></ellipse><ellipse cx="100" cy="100" ry="40" rx="40" fill="#a82828" id="obs4" onclick="selectCube(this.id)" stroke-width="0" stroke="#000000" transform="rotate(0,100,100)"></ellipse><ellipse cx="100" cy="100" ry="20" rx="20" fill="#a38e2e" id="obs5" onclick="selectCube(this.id)" stroke-width="0" stroke="#000000" transform="rotate(0,100,100)"></ellipse></g><g id="copyPatternX46" transform="translate(800,600)"><ellipse cx="100" cy="100" ry="100" rx="100" fill="#ffffff" id="obs1" onclick="selectCube(this.id)" stroke-width="3" stroke="#000000" transform="rotate(0,100,100)"></ellipse><ellipse cx="100" cy="100" ry="80" rx="80" fill="#000000" id="obs2" onclick="selectCube(this.id)" stroke-width="0" stroke="#000000" transform="rotate(0,100,100)"></ellipse><ellipse cx="100" cy="100" ry="60" rx="60" fill="#29a74f" id="obs3" onclick="selectCube(this.id)" stroke-width="0" stroke="#000000" transform="rotate(0,100,100)"></ellipse><ellipse cx="100" cy="100" ry="40" rx="40" fill="#a82828" id="obs4" onclick="selectCube(this.id)" stroke-width="0" stroke="#000000" transform="rotate(0,100,100)"></ellipse><ellipse cx="100" cy="100" ry="20" rx="20" fill="#a38e2e" id="obs5" onclick="selectCube(this.id)" stroke-width="0" stroke="#000000" transform="rotate(0,100,100)"></ellipse></g></svg>