<svg id="fakeSVG" viewbox="0,0,1000,1000" preserveAspectRatio="xMidYMid slice" xmlns="http://www.w3.org/2000/svg" version="1.1" width="1000" height="1000">
		<g id="basicPattern"><path d="M 0,50 L 50,0 L 50,100 L 0,150 L 0,50" stroke="#000000" stroke-width="0" fill="#000000" id="obs1" onclick="selectCube(this.id)"></path><path d="M 0,150 L 50,100 L 50,200 L 0,250 L 0,150" stroke="#000000" stroke-width="1" fill="#ffffff" id="obs2" onclick="selectCube(this.id)"></path><path d="M 100,50 L 50,0 L 50,100 L 100,150 L 100,50 " stroke="#000000" stroke-width="0" fill="#000000" id="obs3" onclick="selectCube(this.id)"></path><path d="M 100,150 L 50,100 L 50,200 L 100,250 L 100,150 " stroke="#000000" stroke-width="1" fill="#ffffff" id="obs4" onclick="selectCube(this.id)"></path><path d="M 150,100 L 100,50 L 100,150 L 150,200 L 150,100" stroke="#000000" stroke-width="1" fill="#ffffff" id="obs5" onclick="selectCube(this.id)"></path><path d="M 150,100 L 200,50 L 200,150 L 150,200 L 150,100" stroke="#000000" stroke-width="1" fill="#ffffff" id="obs6" onclick="selectCube(this.id)"></path><path d="M 150,200 L 100,150 L 100,250 L 150,300 L 150,200" stroke="#000000" stroke-width="0" fill="#000000" id="obs7" onclick="selectCube(this.id)"></path><path d="M 150,200 L 200,150 L 200,250 L 150,300 L 150,200" stroke="#000000" stroke-width="0" fill="#000000" id="obs8" onclick="selectCube(this.id)"></path></g><g id="copyPatternX00" transform="translate(0,0)"><path d="M 0,50 L 50,0 L 50,100 L 0,150 L 0,50" stroke="#000000" stroke-width="0" fill="#000000" id="obs1" onclick="selectCube(this.id)"></path><path d="M 0,150 L 50,100 L 50,200 L 0,250 L 0,150" stroke="#000000" stroke-width="1" fill="#ffffff" id="obs2" onclick="selectCube(this.id)"></path><path d="M 100,50 L 50,0 L 50,100 L 100,150 L 100,50 " stroke="#000000" stroke-width="0" fill="#000000" id="obs3" onclick="selectCube(this.id)"></path><path d="M 100,150 L 50,100 L 50,200 L 100,250 L 100,150 " stroke="#000000" stroke-width="1" fill="#ffffff" id="obs4" onclick="selectCube(this.id)"></path><path d="M 150,100 L 100,50 L 100,150 L 150,200 L 150,100" stroke="#000000" stroke-width="1" fill="#ffffff" id="obs5" onclick="selectCube(this.id)"></path><path d="M 150,100 L 200,50 L 200,150 L 150,200 L 150,100" stroke="#000000" stroke-width="1" fill="#ffffff" id="obs6" onclick="selectCube(this.id)"></path><path d="M 150,200 L 100,150 L 100,250 L 150,300 L 150,200" stroke="#000000" stroke-width="0" fill="#000000" id="obs7" onclick="selectCube(this.id)"></path><path d="M 150,200 L 200,150 L 200,250 L 150,300 L 150,200" stroke="#000000" stroke-width="0" fill="#000000" id="obs8" onclick="selectCube(this.id)"></path></g><g id="copyPatternX10" transform="translate(200,0)"><path d="M 0,50 L 50,0 L 50,100 L 0,150 L 0,50" stroke="#000000" stroke-width="0" fill="#000000" id="obs1" onclick="selectCube(this.id)"></path><path d="M 0,150 L 50,100 L 50,200 L 0,250 L 0,150" stroke="#000000" stroke-width="1" fill="#ffffff" id="obs2" onclick="selectCube(this.id)"></path><path d="M 100,50 L 50,0 L 50,100 L 100,150 L 100,50 " stroke="#000000" stroke-width="0" fill="#000000" id="obs3" onclick="selectCube(this.id)"></path><path d="M 100,150 L 50,100 L 50,200 L 100,250 L 100,150 " stroke="#000000" stroke-width="1" fill="#ffffff" id="obs4" onclick="selectCube(this.id)"></path><path d="M 150,100 L 100,50 L 100,150 L 150,200 L 150,100" stroke="#000000" stroke-width="1" fill="#ffffff" id="obs5" onclick="selectCube(this.id)"></path><path d="M 150,100 L 200,50 L 200,150 L 150,200 L 150,100" stroke="#000000" stroke-width="1" fill="#ffffff" id="obs6" onclick="selectCube(this.id)"></path><path d="M 150,200 L 100,150 L 100,250 L 150,300 L 150,200" stroke="#000000" stroke-width="0" fill="#000000" id="obs7" onclick="selectCube(this.id)"></path><path d="M 150,200 L 200,150 L 200,250 L 150,300 L 150,200" stroke="#000000" stroke-width="0" fill="#000000" id="obs8" onclick="selectCube(this.id)"></path></g><g id="copyPatternX20" transform="translate(400,0)"><path d="M 0,50 L 50,0 L 50,100 L 0,150 L 0,50" stroke="#000000" stroke-width="0" fill="#000000" id="obs1" onclick="selectCube(this.id)"></path><path d="M 0,150 L 50,100 L 50,200 L 0,250 L 0,150" stroke="#000000" stroke-width="1" fill="#ffffff" id="obs2" onclick="selectCube(this.id)"></path><path d="M 100,50 L 50,0 L 50,100 L 100,150 L 100,50 " stroke="#000000" stroke-width="0" fill="#000000" id="obs3" onclick="selectCube(this.id)"></path><path d="M 100,150 L 50,100 L 50,200 L 100,250 L 100,150 " stroke="#000000" stroke-width="1" fill="#ffffff" id="obs4" onclick="selectCube(this.id)"></path><path d="M 150,100 L 100,50 L 100,150 L 150,200 L 150,100" stroke="#000000" stroke-width="1" fill="#ffffff" id="obs5" onclick="selectCube(this.id)"></path><path d="M 150,100 L 200,50 L 200,150 L 150,200 L 150,100" stroke="#000000" stroke-width="1" fill="#ffffff" id="obs6" onclick="selectCube(this.id)"></path><path d="M 150,200 L 100,150 L 100,250 L 150,300 L 150,200" stroke="#000000" stroke-width="0" fill="#000000" id="obs7" onclick="selectCube(this.id)"></path><path d="M 150,200 L 200,150 L 200,250 L 150,300 L 150,200" stroke="#000000" stroke-width="0" fill="#000000" id="obs8" onclick="selectCube(this.id)"></path></g><g id="copyPatternX30" transform="translate(600,0)"><path d="M 0,50 L 50,0 L 50,100 L 0,150 L 0,50" stroke="#000000" stroke-width="0" fill="#000000" id="obs1" onclick="selectCube(this.id)"></path><path d="M 0,150 L 50,100 L 50,200 L 0,250 L 0,150" stroke="#000000" stroke-width="1" fill="#ffffff" id="obs2" onclick="selectCube(this.id)"></path><path d="M 100,50 L 50,0 L 50,100 L 100,150 L 100,50 " stroke="#000000" stroke-width="0" fill="#000000" id="obs3" onclick="selectCube(this.id)"></path><path d="M 100,150 L 50,100 L 50,200 L 100,250 L 100,150 " stroke="#000000" stroke-width="1" fill="#ffffff" id="obs4" onclick="selectCube(this.id)"></path><path d="M 150,100 L 100,50 L 100,150 L 150,200 L 150,100" stroke="#000000" stroke-width="1" fill="#ffffff" id="obs5" onclick="selectCube(this.id)"></path><path d="M 150,100 L 200,50 L 200,150 L 150,200 L 150,100" stroke="#000000" stroke-width="1" fill="#ffffff" id="obs6" onclick="selectCube(this.id)"></path><path d="M 150,200 L 100,150 L 100,250 L 150,300 L 150,200" stroke="#000000" stroke-width="0" fill="#000000" id="obs7" onclick="selectCube(this.id)"></path><path d="M 150,200 L 200,150 L 200,250 L 150,300 L 150,200" stroke="#000000" stroke-width="0" fill="#000000" id="obs8" onclick="selectCube(this.id)"></path></g><g id="copyPatternX40" transform="translate(800,0)"><path d="M 0,50 L 50,0 L 50,100 L 0,150 L 0,50" stroke="#000000" stroke-width="0" fill="#000000" id="obs1" onclick="selectCube(this.id)"></path><path d="M 0,150 L 50,100 L 50,200 L 0,250 L 0,150" stroke="#000000" stroke-width="1" fill="#ffffff" id="obs2" onclick="selectCube(this.id)"></path><path d="M 100,50 L 50,0 L 50,100 L 100,150 L 100,50 " stroke="#000000" stroke-width="0" fill="#000000" id="obs3" onclick="selectCube(this.id)"></path><path d="M 100,150 L 50,100 L 50,200 L 100,250 L 100,150 " stroke="#000000" stroke-width="1" fill="#ffffff" id="obs4" onclick="selectCube(this.id)"></path><path d="M 150,100 L 100,50 L 100,150 L 150,200 L 150,100" stroke="#000000" stroke-width="1" fill="#ffffff" id="obs5" onclick="selectCube(this.id)"></path><path d="M 150,100 L 200,50 L 200,150 L 150,200 L 150,100" stroke="#000000" stroke-width="1" fill="#ffffff" id="obs6" onclick="selectCube(this.id)"></path><path d="M 150,200 L 100,150 L 100,250 L 150,300 L 150,200" stroke="#000000" stroke-width="0" fill="#000000" id="obs7" onclick="selectCube(this.id)"></path><path d="M 150,200 L 200,150 L 200,250 L 150,300 L 150,200" stroke="#000000" stroke-width="0" fill="#000000" id="obs8" onclick="selectCube(this.id)"></path></g><g id="copyPatternX01" transform="translate(0,200)"><path d="M 0,50 L 50,0 L 50,100 L 0,150 L 0,50" stroke="#000000" stroke-width="0" fill="#000000" id="obs1" onclick="selectCube(this.id)"></path><path d="M 0,150 L 50,100 L 50,200 L 0,250 L 0,150" stroke="#000000" stroke-width="1" fill="#ffffff" id="obs2" onclick="selectCube(this.id)"></path><path d="M 100,50 L 50,0 L 50,100 L 100,150 L 100,50 " stroke="#000000" stroke-width="0" fill="#000000" id="obs3" onclick="selectCube(this.id)"></path><path d="M 100,150 L 50,100 L 50,200 L 100,250 L 100,150 " stroke="#000000" stroke-width="1" fill="#ffffff" id="obs4" onclick="selectCube(this.id)"></path><path d="M 150,100 L 100,50 L 100,150 L 150,200 L 150,100" stroke="#000000" stroke-width="1" fill="#ffffff" id="obs5" onclick="selectCube(this.id)"></path><path d="M 150,100 L 200,50 L 200,150 L 150,200 L 150,100" stroke="#000000" stroke-width="1" fill="#ffffff" id="obs6" onclick="selectCube(this.id)"></path><path d="M 150,200 L 100,150 L 100,250 L 150,300 L 150,200" stroke="#000000" stroke-width="0" fill="#000000" id="obs7" onclick="selectCube(this.id)"></path><path d="M 150,200 L 200,150 L 200,250 L 150,300 L 150,200" stroke="#000000" stroke-width="0" fill="#000000" id="obs8" onclick="selectCube(this.id)"></path></g><g id="copyPatternX11" transform="translate(200,200)"><path d="M 0,50 L 50,0 L 50,100 L 0,150 L 0,50" stroke="#000000" stroke-width="0" fill="#000000" id="obs1" onclick="selectCube(this.id)"></path><path d="M 0,150 L 50,100 L 50,200 L 0,250 L 0,150" stroke="#000000" stroke-width="1" fill="#ffffff" id="obs2" onclick="selectCube(this.id)"></path><path d="M 100,50 L 50,0 L 50,100 L 100,150 L 100,50 " stroke="#000000" stroke-width="0" fill="#000000" id="obs3" onclick="selectCube(this.id)"></path><path d="M 100,150 L 50,100 L 50,200 L 100,250 L 100,150 " stroke="#000000" stroke-width="1" fill="#ffffff" id="obs4" onclick="selectCube(this.id)"></path><path d="M 150,100 L 100,50 L 100,150 L 150,200 L 150,100" stroke="#000000" stroke-width="1" fill="#ffffff" id="obs5" onclick="selectCube(this.id)"></path><path d="M 150,100 L 200,50 L 200,150 L 150,200 L 150,100" stroke="#000000" stroke-width="1" fill="#ffffff" id="obs6" onclick="selectCube(this.id)"></path><path d="M 150,200 L 100,150 L 100,250 L 150,300 L 150,200" stroke="#000000" stroke-width="0" fill="#000000" id="obs7" onclick="selectCube(this.id)"></path><path d="M 150,200 L 200,150 L 200,250 L 150,300 L 150,200" stroke="#000000" stroke-width="0" fill="#000000" id="obs8" onclick="selectCube(this.id)"></path></g><g id="copyPatternX21" transform="translate(400,200)"><path d="M 0,50 L 50,0 L 50,100 L 0,150 L 0,50" stroke="#000000" stroke-width="0" fill="#000000" id="obs1" onclick="selectCube(this.id)"></path><path d="M 0,150 L 50,100 L 50,200 L 0,250 L 0,150" stroke="#000000" stroke-width="1" fill="#ffffff" id="obs2" onclick="selectCube(this.id)"></path><path d="M 100,50 L 50,0 L 50,100 L 100,150 L 100,50 " stroke="#000000" stroke-width="0" fill="#000000" id="obs3" onclick="selectCube(this.id)"></path><path d="M 100,150 L 50,100 L 50,200 L 100,250 L 100,150 " stroke="#000000" stroke-width="1" fill="#ffffff" id="obs4" onclick="selectCube(this.id)"></path><path d="M 150,100 L 100,50 L 100,150 L 150,200 L 150,100" stroke="#000000" stroke-width="1" fill="#ffffff" id="obs5" onclick="selectCube(this.id)"></path><path d="M 150,100 L 200,50 L 200,150 L 150,200 L 150,100" stroke="#000000" stroke-width="1" fill="#ffffff" id="obs6" onclick="selectCube(this.id)"></path><path d="M 150,200 L 100,150 L 100,250 L 150,300 L 150,200" stroke="#000000" stroke-width="0" fill="#000000" id="obs7" onclick="selectCube(this.id)"></path><path d="M 150,200 L 200,150 L 200,250 L 150,300 L 150,200" stroke="#000000" stroke-width="0" fill="#000000" id="obs8" onclick="selectCube(this.id)"></path></g><g id="copyPatternX31" transform="translate(600,200)"><path d="M 0,50 L 50,0 L 50,100 L 0,150 L 0,50" stroke="#000000" stroke-width="0" fill="#000000" id="obs1" onclick="selectCube(this.id)"></path><path d="M 0,150 L 50,100 L 50,200 L 0,250 L 0,150" stroke="#000000" stroke-width="1" fill="#ffffff" id="obs2" onclick="selectCube(this.id)"></path><path d="M 100,50 L 50,0 L 50,100 L 100,150 L 100,50 " stroke="#000000" stroke-width="0" fill="#000000" id="obs3" onclick="selectCube(this.id)"></path><path d="M 100,150 L 50,100 L 50,200 L 100,250 L 100,150 " stroke="#000000" stroke-width="1" fill="#ffffff" id="obs4" onclick="selectCube(this.id)"></path><path d="M 150,100 L 100,50 L 100,150 L 150,200 L 150,100" stroke="#000000" stroke-width="1" fill="#ffffff" id="obs5" onclick="selectCube(this.id)"></path><path d="M 150,100 L 200,50 L 200,150 L 150,200 L 150,100" stroke="#000000" stroke-width="1" fill="#ffffff" id="obs6" onclick="selectCube(this.id)"></path><path d="M 150,200 L 100,150 L 100,250 L 150,300 L 150,200" stroke="#000000" stroke-width="0" fill="#000000" id="obs7" onclick="selectCube(this.id)"></path><path d="M 150,200 L 200,150 L 200,250 L 150,300 L 150,200" stroke="#000000" stroke-width="0" fill="#000000" id="obs8" onclick="selectCube(this.id)"></path></g><g id="copyPatternX41" transform="translate(800,200)"><path d="M 0,50 L 50,0 L 50,100 L 0,150 L 0,50" stroke="#000000" stroke-width="0" fill="#000000" id="obs1" onclick="selectCube(this.id)"></path><path d="M 0,150 L 50,100 L 50,200 L 0,250 L 0,150" stroke="#000000" stroke-width="1" fill="#ffffff" id="obs2" onclick="selectCube(this.id)"></path><path d="M 100,50 L 50,0 L 50,100 L 100,150 L 100,50 " stroke="#000000" stroke-width="0" fill="#000000" id="obs3" onclick="selectCube(this.id)"></path><path d="M 100,150 L 50,100 L 50,200 L 100,250 L 100,150 " stroke="#000000" stroke-width="1" fill="#ffffff" id="obs4" onclick="selectCube(this.id)"></path><path d="M 150,100 L 100,50 L 100,150 L 150,200 L 150,100" stroke="#000000" stroke-width="1" fill="#ffffff" id="obs5" onclick="selectCube(this.id)"></path><path d="M 150,100 L 200,50 L 200,150 L 150,200 L 150,100" stroke="#000000" stroke-width="1" fill="#ffffff" id="obs6" onclick="selectCube(this.id)"></path><path d="M 150,200 L 100,150 L 100,250 L 150,300 L 150,200" stroke="#000000" stroke-width="0" fill="#000000" id="obs7" onclick="selectCube(this.id)"></path><path d="M 150,200 L 200,150 L 200,250 L 150,300 L 150,200" stroke="#000000" stroke-width="0" fill="#000000" id="obs8" onclick="selectCube(this.id)"></path></g><g id="copyPatternX02" transform="translate(0,400)"><path d="M 0,50 L 50,0 L 50,100 L 0,150 L 0,50" stroke="#000000" stroke-width="0" fill="#000000" id="obs1" onclick="selectCube(this.id)"></path><path d="M 0,150 L 50,100 L 50,200 L 0,250 L 0,150" stroke="#000000" stroke-width="1" fill="#ffffff" id="obs2" onclick="selectCube(this.id)"></path><path d="M 100,50 L 50,0 L 50,100 L 100,150 L 100,50 " stroke="#000000" stroke-width="0" fill="#000000" id="obs3" onclick="selectCube(this.id)"></path><path d="M 100,150 L 50,100 L 50,200 L 100,250 L 100,150 " stroke="#000000" stroke-width="1" fill="#ffffff" id="obs4" onclick="selectCube(this.id)"></path><path d="M 150,100 L 100,50 L 100,150 L 150,200 L 150,100" stroke="#000000" stroke-width="1" fill="#ffffff" id="obs5" onclick="selectCube(this.id)"></path><path d="M 150,100 L 200,50 L 200,150 L 150,200 L 150,100" stroke="#000000" stroke-width="1" fill="#ffffff" id="obs6" onclick="selectCube(this.id)"></path><path d="M 150,200 L 100,150 L 100,250 L 150,300 L 150,200" stroke="#000000" stroke-width="0" fill="#000000" id="obs7" onclick="selectCube(this.id)"></path><path d="M 150,200 L 200,150 L 200,250 L 150,300 L 150,200" stroke="#000000" stroke-width="0" fill="#000000" id="obs8" onclick="selectCube(this.id)"></path></g><g id="copyPatternX12" transform="translate(200,400)"><path d="M 0,50 L 50,0 L 50,100 L 0,150 L 0,50" stroke="#000000" stroke-width="0" fill="#000000" id="obs1" onclick="selectCube(this.id)"></path><path d="M 0,150 L 50,100 L 50,200 L 0,250 L 0,150" stroke="#000000" stroke-width="1" fill="#ffffff" id="obs2" onclick="selectCube(this.id)"></path><path d="M 100,50 L 50,0 L 50,100 L 100,150 L 100,50 " stroke="#000000" stroke-width="0" fill="#000000" id="obs3" onclick="selectCube(this.id)"></path><path d="M 100,150 L 50,100 L 50,200 L 100,250 L 100,150 " stroke="#000000" stroke-width="1" fill="#ffffff" id="obs4" onclick="selectCube(this.id)"></path><path d="M 150,100 L 100,50 L 100,150 L 150,200 L 150,100" stroke="#000000" stroke-width="1" fill="#ffffff" id="obs5" onclick="selectCube(this.id)"></path><path d="M 150,100 L 200,50 L 200,150 L 150,200 L 150,100" stroke="#000000" stroke-width="1" fill="#ffffff" id="obs6" onclick="selectCube(this.id)"></path><path d="M 150,200 L 100,150 L 100,250 L 150,300 L 150,200" stroke="#000000" stroke-width="0" fill="#000000" id="obs7" onclick="selectCube(this.id)"></path><path d="M 150,200 L 200,150 L 200,250 L 150,300 L 150,200" stroke="#000000" stroke-width="0" fill="#000000" id="obs8" onclick="selectCube(this.id)"></path></g><g id="copyPatternX22" transform="translate(400,400)"><path d="M 0,50 L 50,0 L 50,100 L 0,150 L 0,50" stroke="#000000" stroke-width="0" fill="#000000" id="obs1" onclick="selectCube(this.id)"></path><path d="M 0,150 L 50,100 L 50,200 L 0,250 L 0,150" stroke="#000000" stroke-width="1" fill="#ffffff" id="obs2" onclick="selectCube(this.id)"></path><path d="M 100,50 L 50,0 L 50,100 L 100,150 L 100,50 " stroke="#000000" stroke-width="0" fill="#000000" id="obs3" onclick="selectCube(this.id)"></path><path d="M 100,150 L 50,100 L 50,200 L 100,250 L 100,150 " stroke="#000000" stroke-width="1" fill="#ffffff" id="obs4" onclick="selectCube(this.id)"></path><path d="M 150,100 L 100,50 L 100,150 L 150,200 L 150,100" stroke="#000000" stroke-width="1" fill="#ffffff" id="obs5" onclick="selectCube(this.id)"></path><path d="M 150,100 L 200,50 L 200,150 L 150,200 L 150,100" stroke="#000000" stroke-width="1" fill="#ffffff" id="obs6" onclick="selectCube(this.id)"></path><path d="M 150,200 L 100,150 L 100,250 L 150,300 L 150,200" stroke="#000000" stroke-width="0" fill="#000000" id="obs7" onclick="selectCube(this.id)"></path><path d="M 150,200 L 200,150 L 200,250 L 150,300 L 150,200" stroke="#000000" stroke-width="0" fill="#000000" id="obs8" onclick="selectCube(this.id)"></path></g><g id="copyPatternX32" transform="translate(600,400)"><path d="M 0,50 L 50,0 L 50,100 L 0,150 L 0,50" stroke="#000000" stroke-width="0" fill="#000000" id="obs1" onclick="selectCube(this.id)"></path><path d="M 0,150 L 50,100 L 50,200 L 0,250 L 0,150" stroke="#000000" stroke-width="1" fill="#ffffff" id="obs2" onclick="selectCube(this.id)"></path><path d="M 100,50 L 50,0 L 50,100 L 100,150 L 100,50 " stroke="#000000" stroke-width="0" fill="#000000" id="obs3" onclick="selectCube(this.id)"></path><path d="M 100,150 L 50,100 L 50,200 L 100,250 L 100,150 " stroke="#000000" stroke-width="1" fill="#ffffff" id="obs4" onclick="selectCube(this.id)"></path><path d="M 150,100 L 100,50 L 100,150 L 150,200 L 150,100" stroke="#000000" stroke-width="1" fill="#ffffff" id="obs5" onclick="selectCube(this.id)"></path><path d="M 150,100 L 200,50 L 200,150 L 150,200 L 150,100" stroke="#000000" stroke-width="1" fill="#ffffff" id="obs6" onclick="selectCube(this.id)"></path><path d="M 150,200 L 100,150 L 100,250 L 150,300 L 150,200" stroke="#000000" stroke-width="0" fill="#000000" id="obs7" onclick="selectCube(this.id)"></path><path d="M 150,200 L 200,150 L 200,250 L 150,300 L 150,200" stroke="#000000" stroke-width="0" fill="#000000" id="obs8" onclick="selectCube(this.id)"></path></g><g id="copyPatternX42" transform="translate(800,400)"><path d="M 0,50 L 50,0 L 50,100 L 0,150 L 0,50" stroke="#000000" stroke-width="0" fill="#000000" id="obs1" onclick="selectCube(this.id)"></path><path d="M 0,150 L 50,100 L 50,200 L 0,250 L 0,150" stroke="#000000" stroke-width="1" fill="#ffffff" id="obs2" onclick="selectCube(this.id)"></path><path d="M 100,50 L 50,0 L 50,100 L 100,150 L 100,50 " stroke="#000000" stroke-width="0" fill="#000000" id="obs3" onclick="selectCube(this.id)"></path><path d="M 100,150 L 50,100 L 50,200 L 100,250 L 100,150 " stroke="#000000" stroke-width="1" fill="#ffffff" id="obs4" onclick="selectCube(this.id)"></path><path d="M 150,100 L 100,50 L 100,150 L 150,200 L 150,100" stroke="#000000" stroke-width="1" fill="#ffffff" id="obs5" onclick="selectCube(this.id)"></path><path d="M 150,100 L 200,50 L 200,150 L 150,200 L 150,100" stroke="#000000" stroke-width="1" fill="#ffffff" id="obs6" onclick="selectCube(this.id)"></path><path d="M 150,200 L 100,150 L 100,250 L 150,300 L 150,200" stroke="#000000" stroke-width="0" fill="#000000" id="obs7" onclick="selectCube(this.id)"></path><path d="M 150,200 L 200,150 L 200,250 L 150,300 L 150,200" stroke="#000000" stroke-width="0" fill="#000000" id="obs8" onclick="selectCube(this.id)"></path></g><g id="copyPatternX03" transform="translate(0,600)"><path d="M 0,50 L 50,0 L 50,100 L 0,150 L 0,50" stroke="#000000" stroke-width="0" fill="#000000" id="obs1" onclick="selectCube(this.id)"></path><path d="M 0,150 L 50,100 L 50,200 L 0,250 L 0,150" stroke="#000000" stroke-width="1" fill="#ffffff" id="obs2" onclick="selectCube(this.id)"></path><path d="M 100,50 L 50,0 L 50,100 L 100,150 L 100,50 " stroke="#000000" stroke-width="0" fill="#000000" id="obs3" onclick="selectCube(this.id)"></path><path d="M 100,150 L 50,100 L 50,200 L 100,250 L 100,150 " stroke="#000000" stroke-width="1" fill="#ffffff" id="obs4" onclick="selectCube(this.id)"></path><path d="M 150,100 L 100,50 L 100,150 L 150,200 L 150,100" stroke="#000000" stroke-width="1" fill="#ffffff" id="obs5" onclick="selectCube(this.id)"></path><path d="M 150,100 L 200,50 L 200,150 L 150,200 L 150,100" stroke="#000000" stroke-width="1" fill="#ffffff" id="obs6" onclick="selectCube(this.id)"></path><path d="M 150,200 L 100,150 L 100,250 L 150,300 L 150,200" stroke="#000000" stroke-width="0" fill="#000000" id="obs7" onclick="selectCube(this.id)"></path><path d="M 150,200 L 200,150 L 200,250 L 150,300 L 150,200" stroke="#000000" stroke-width="0" fill="#000000" id="obs8" onclick="selectCube(this.id)"></path></g><g id="copyPatternX13" transform="translate(200,600)"><path d="M 0,50 L 50,0 L 50,100 L 0,150 L 0,50" stroke="#000000" stroke-width="0" fill="#000000" id="obs1" onclick="selectCube(this.id)"></path><path d="M 0,150 L 50,100 L 50,200 L 0,250 L 0,150" stroke="#000000" stroke-width="1" fill="#ffffff" id="obs2" onclick="selectCube(this.id)"></path><path d="M 100,50 L 50,0 L 50,100 L 100,150 L 100,50 " stroke="#000000" stroke-width="0" fill="#000000" id="obs3" onclick="selectCube(this.id)"></path><path d="M 100,150 L 50,100 L 50,200 L 100,250 L 100,150 " stroke="#000000" stroke-width="1" fill="#ffffff" id="obs4" onclick="selectCube(this.id)"></path><path d="M 150,100 L 100,50 L 100,150 L 150,200 L 150,100" stroke="#000000" stroke-width="1" fill="#ffffff" id="obs5" onclick="selectCube(this.id)"></path><path d="M 150,100 L 200,50 L 200,150 L 150,200 L 150,100" stroke="#000000" stroke-width="1" fill="#ffffff" id="obs6" onclick="selectCube(this.id)"></path><path d="M 150,200 L 100,150 L 100,250 L 150,300 L 150,200" stroke="#000000" stroke-width="0" fill="#000000" id="obs7" onclick="selectCube(this.id)"></path><path d="M 150,200 L 200,150 L 200,250 L 150,300 L 150,200" stroke="#000000" stroke-width="0" fill="#000000" id="obs8" onclick="selectCube(this.id)"></path></g><g id="copyPatternX23" transform="translate(400,600)"><path d="M 0,50 L 50,0 L 50,100 L 0,150 L 0,50" stroke="#000000" stroke-width="0" fill="#000000" id="obs1" onclick="selectCube(this.id)"></path><path d="M 0,150 L 50,100 L 50,200 L 0,250 L 0,150" stroke="#000000" stroke-width="1" fill="#ffffff" id="obs2" onclick="selectCube(this.id)"></path><path d="M 100,50 L 50,0 L 50,100 L 100,150 L 100,50 " stroke="#000000" stroke-width="0" fill="#000000" id="obs3" onclick="selectCube(this.id)"></path><path d="M 100,150 L 50,100 L 50,200 L 100,250 L 100,150 " stroke="#000000" stroke-width="1" fill="#ffffff" id="obs4" onclick="selectCube(this.id)"></path><path d="M 150,100 L 100,50 L 100,150 L 150,200 L 150,100" stroke="#000000" stroke-width="1" fill="#ffffff" id="obs5" onclick="selectCube(this.id)"></path><path d="M 150,100 L 200,50 L 200,150 L 150,200 L 150,100" stroke="#000000" stroke-width="1" fill="#ffffff" id="obs6" onclick="selectCube(this.id)"></path><path d="M 150,200 L 100,150 L 100,250 L 150,300 L 150,200" stroke="#000000" stroke-width="0" fill="#000000" id="obs7" onclick="selectCube(this.id)"></path><path d="M 150,200 L 200,150 L 200,250 L 150,300 L 150,200" stroke="#000000" stroke-width="0" fill="#000000" id="obs8" onclick="selectCube(this.id)"></path></g><g id="copyPatternX33" transform="translate(600,600)"><path d="M 0,50 L 50,0 L 50,100 L 0,150 L 0,50" stroke="#000000" stroke-width="0" fill="#000000" id="obs1" onclick="selectCube(this.id)"></path><path d="M 0,150 L 50,100 L 50,200 L 0,250 L 0,150" stroke="#000000" stroke-width="1" fill="#ffffff" id="obs2" onclick="selectCube(this.id)"></path><path d="M 100,50 L 50,0 L 50,100 L 100,150 L 100,50 " stroke="#000000" stroke-width="0" fill="#000000" id="obs3" onclick="selectCube(this.id)"></path><path d="M 100,150 L 50,100 L 50,200 L 100,250 L 100,150 " stroke="#000000" stroke-width="1" fill="#ffffff" id="obs4" onclick="selectCube(this.id)"></path><path d="M 150,100 L 100,50 L 100,150 L 150,200 L 150,100" stroke="#000000" stroke-width="1" fill="#ffffff" id="obs5" onclick="selectCube(this.id)"></path><path d="M 150,100 L 200,50 L 200,150 L 150,200 L 150,100" stroke="#000000" stroke-width="1" fill="#ffffff" id="obs6" onclick="selectCube(this.id)"></path><path d="M 150,200 L 100,150 L 100,250 L 150,300 L 150,200" stroke="#000000" stroke-width="0" fill="#000000" id="obs7" onclick="selectCube(this.id)"></path><path d="M 150,200 L 200,150 L 200,250 L 150,300 L 150,200" stroke="#000000" stroke-width="0" fill="#000000" id="obs8" onclick="selectCube(this.id)"></path></g><g id="copyPatternX43" transform="translate(800,600)"><path d="M 0,50 L 50,0 L 50,100 L 0,150 L 0,50" stroke="#000000" stroke-width="0" fill="#000000" id="obs1" onclick="selectCube(this.id)"></path><path d="M 0,150 L 50,100 L 50,200 L 0,250 L 0,150" stroke="#000000" stroke-width="1" fill="#ffffff" id="obs2" onclick="selectCube(this.id)"></path><path d="M 100,50 L 50,0 L 50,100 L 100,150 L 100,50 " stroke="#000000" stroke-width="0" fill="#000000" id="obs3" onclick="selectCube(this.id)"></path><path d="M 100,150 L 50,100 L 50,200 L 100,250 L 100,150 " stroke="#000000" stroke-width="1" fill="#ffffff" id="obs4" onclick="selectCube(this.id)"></path><path d="M 150,100 L 100,50 L 100,150 L 150,200 L 150,100" stroke="#000000" stroke-width="1" fill="#ffffff" id="obs5" onclick="selectCube(this.id)"></path><path d="M 150,100 L 200,50 L 200,150 L 150,200 L 150,100" stroke="#000000" stroke-width="1" fill="#ffffff" id="obs6" onclick="selectCube(this.id)"></path><path d="M 150,200 L 100,150 L 100,250 L 150,300 L 150,200" stroke="#000000" stroke-width="0" fill="#000000" id="obs7" onclick="selectCube(this.id)"></path><path d="M 150,200 L 200,150 L 200,250 L 150,300 L 150,200" stroke="#000000" stroke-width="0" fill="#000000" id="obs8" onclick="selectCube(this.id)"></path></g><g id="copyPatternX04" transform="translate(0,800)"><path d="M 0,50 L 50,0 L 50,100 L 0,150 L 0,50" stroke="#000000" stroke-width="0" fill="#000000" id="obs1" onclick="selectCube(this.id)"></path><path d="M 0,150 L 50,100 L 50,200 L 0,250 L 0,150" stroke="#000000" stroke-width="1" fill="#ffffff" id="obs2" onclick="selectCube(this.id)"></path><path d="M 100,50 L 50,0 L 50,100 L 100,150 L 100,50 " stroke="#000000" stroke-width="0" fill="#000000" id="obs3" onclick="selectCube(this.id)"></path><path d="M 100,150 L 50,100 L 50,200 L 100,250 L 100,150 " stroke="#000000" stroke-width="1" fill="#ffffff" id="obs4" onclick="selectCube(this.id)"></path><path d="M 150,100 L 100,50 L 100,150 L 150,200 L 150,100" stroke="#000000" stroke-width="1" fill="#ffffff" id="obs5" onclick="selectCube(this.id)"></path><path d="M 150,100 L 200,50 L 200,150 L 150,200 L 150,100" stroke="#000000" stroke-width="1" fill="#ffffff" id="obs6" onclick="selectCube(this.id)"></path><path d="M 150,200 L 100,150 L 100,250 L 150,300 L 150,200" stroke="#000000" stroke-width="0" fill="#000000" id="obs7" onclick="selectCube(this.id)"></path><path d="M 150,200 L 200,150 L 200,250 L 150,300 L 150,200" stroke="#000000" stroke-width="0" fill="#000000" id="obs8" onclick="selectCube(this.id)"></path></g><g id="copyPatternX14" transform="translate(200,800)"><path d="M 0,50 L 50,0 L 50,100 L 0,150 L 0,50" stroke="#000000" stroke-width="0" fill="#000000" id="obs1" onclick="selectCube(this.id)"></path><path d="M 0,150 L 50,100 L 50,200 L 0,250 L 0,150" stroke="#000000" stroke-width="1" fill="#ffffff" id="obs2" onclick="selectCube(this.id)"></path><path d="M 100,50 L 50,0 L 50,100 L 100,150 L 100,50 " stroke="#000000" stroke-width="0" fill="#000000" id="obs3" onclick="selectCube(this.id)"></path><path d="M 100,150 L 50,100 L 50,200 L 100,250 L 100,150 " stroke="#000000" stroke-width="1" fill="#ffffff" id="obs4" onclick="selectCube(this.id)"></path><path d="M 150,100 L 100,50 L 100,150 L 150,200 L 150,100" stroke="#000000" stroke-width="1" fill="#ffffff" id="obs5" onclick="selectCube(this.id)"></path><path d="M 150,100 L 200,50 L 200,150 L 150,200 L 150,100" stroke="#000000" stroke-width="1" fill="#ffffff" id="obs6" onclick="selectCube(this.id)"></path><path d="M 150,200 L 100,150 L 100,250 L 150,300 L 150,200" stroke="#000000" stroke-width="0" fill="#000000" id="obs7" onclick="selectCube(this.id)"></path><path d="M 150,200 L 200,150 L 200,250 L 150,300 L 150,200" stroke="#000000" stroke-width="0" fill="#000000" id="obs8" onclick="selectCube(this.id)"></path></g><g id="copyPatternX24" transform="translate(400,800)"><path d="M 0,50 L 50,0 L 50,100 L 0,150 L 0,50" stroke="#000000" stroke-width="0" fill="#000000" id="obs1" onclick="selectCube(this.id)"></path><path d="M 0,150 L 50,100 L 50,200 L 0,250 L 0,150" stroke="#000000" stroke-width="1" fill="#ffffff" id="obs2" onclick="selectCube(this.id)"></path><path d="M 100,50 L 50,0 L 50,100 L 100,150 L 100,50 " stroke="#000000" stroke-width="0" fill="#000000" id="obs3" onclick="selectCube(this.id)"></path><path d="M 100,150 L 50,100 L 50,200 L 100,250 L 100,150 " stroke="#000000" stroke-width="1" fill="#ffffff" id="obs4" onclick="selectCube(this.id)"></path><path d="M 150,100 L 100,50 L 100,150 L 150,200 L 150,100" stroke="#000000" stroke-width="1" fill="#ffffff" id="obs5" onclick="selectCube(this.id)"></path><path d="M 150,100 L 200,50 L 200,150 L 150,200 L 150,100" stroke="#000000" stroke-width="1" fill="#ffffff" id="obs6" onclick="selectCube(this.id)"></path><path d="M 150,200 L 100,150 L 100,250 L 150,300 L 150,200" stroke="#000000" stroke-width="0" fill="#000000" id="obs7" onclick="selectCube(this.id)"></path><path d="M 150,200 L 200,150 L 200,250 L 150,300 L 150,200" stroke="#000000" stroke-width="0" fill="#000000" id="obs8" onclick="selectCube(this.id)"></path></g><g id="copyPatternX34" transform="translate(600,800)"><path d="M 0,50 L 50,0 L 50,100 L 0,150 L 0,50" stroke="#000000" stroke-width="0" fill="#000000" id="obs1" onclick="selectCube(this.id)"></path><path d="M 0,150 L 50,100 L 50,200 L 0,250 L 0,150" stroke="#000000" stroke-width="1" fill="#ffffff" id="obs2" onclick="selectCube(this.id)"></path><path d="M 100,50 L 50,0 L 50,100 L 100,150 L 100,50 " stroke="#000000" stroke-width="0" fill="#000000" id="obs3" onclick="selectCube(this.id)"></path><path d="M 100,150 L 50,100 L 50,200 L 100,250 L 100,150 " stroke="#000000" stroke-width="1" fill="#ffffff" id="obs4" onclick="selectCube(this.id)"></path><path d="M 150,100 L 100,50 L 100,150 L 150,200 L 150,100" stroke="#000000" stroke-width="1" fill="#ffffff" id="obs5" onclick="selectCube(this.id)"></path><path d="M 150,100 L 200,50 L 200,150 L 150,200 L 150,100" stroke="#000000" stroke-width="1" fill="#ffffff" id="obs6" onclick="selectCube(this.id)"></path><path d="M 150,200 L 100,150 L 100,250 L 150,300 L 150,200" stroke="#000000" stroke-width="0" fill="#000000" id="obs7" onclick="selectCube(this.id)"></path><path d="M 150,200 L 200,150 L 200,250 L 150,300 L 150,200" stroke="#000000" stroke-width="0" fill="#000000" id="obs8" onclick="selectCube(this.id)"></path></g><g id="copyPatternX44" transform="translate(800,800)"><path d="M 0,50 L 50,0 L 50,100 L 0,150 L 0,50" stroke="#000000" stroke-width="0" fill="#000000" id="obs1" onclick="selectCube(this.id)"></path><path d="M 0,150 L 50,100 L 50,200 L 0,250 L 0,150" stroke="#000000" stroke-width="1" fill="#ffffff" id="obs2" onclick="selectCube(this.id)"></path><path d="M 100,50 L 50,0 L 50,100 L 100,150 L 100,50 " stroke="#000000" stroke-width="0" fill="#000000" id="obs3" onclick="selectCube(this.id)"></path><path d="M 100,150 L 50,100 L 50,200 L 100,250 L 100,150 " stroke="#000000" stroke-width="1" fill="#ffffff" id="obs4" onclick="selectCube(this.id)"></path><path d="M 150,100 L 100,50 L 100,150 L 150,200 L 150,100" stroke="#000000" stroke-width="1" fill="#ffffff" id="obs5" onclick="selectCube(this.id)"></path><path d="M 150,100 L 200,50 L 200,150 L 150,200 L 150,100" stroke="#000000" stroke-width="1" fill="#ffffff" id="obs6" onclick="selectCube(this.id)"></path><path d="M 150,200 L 100,150 L 100,250 L 150,300 L 150,200" stroke="#000000" stroke-width="0" fill="#000000" id="obs7" onclick="selectCube(this.id)"></path><path d="M 150,200 L 200,150 L 200,250 L 150,300 L 150,200" stroke="#000000" stroke-width="0" fill="#000000" id="obs8" onclick="selectCube(this.id)"></path></g></svg>